<?xml version="1.0" encoding="UTF-8" standalone="no"?>
<!-- Created with Inkscape (http://www.inkscape.org/) -->

<svg
   xmlns:dc="http://purl.org/dc/elements/1.1/"
   xmlns:cc="http://creativecommons.org/ns#"
   xmlns:rdf="http://www.w3.org/1999/02/22-rdf-syntax-ns#"
   xmlns:svg="http://www.w3.org/2000/svg"
   xmlns="http://www.w3.org/2000/svg"
   xmlns:xlink="http://www.w3.org/1999/xlink"
   xmlns:sodipodi="http://sodipodi.sourceforge.net/DTD/sodipodi-0.dtd"
   xmlns:inkscape="http://www.inkscape.org/namespaces/inkscape"
   width="17.859381mm"
   height="14.28784mm"
   viewBox="0 0 17.859381 14.28784"
   version="1.1"
   id="svg71741"
   inkscape:version="0.92.2 (5c3e80d, 2017-08-06)"
   sodipodi:docname="621.svg">
  <defs
     id="defs71735">
    <pattern
       inkscape:collect="always"
       xlink:href="#pattern72218"
       id="pattern77963"
       patternTransform="matrix(0.33072916,0,0,-0.33072916,151.37456,182.63794)" />
    <pattern
       inkscape:collect="always"
       xlink:href="#pattern136461"
       id="pattern72218"
       patternTransform="translate(480.72574,450.898)" />
    <pattern
       inkscape:collect="always"
       xlink:href="#sed621"
       id="pattern136461"
       patternTransform="translate(480.72574,450.898)" />
    <pattern
       id="sed621"
       height="53.584"
       width="53.584"
       y="0"
       x="0"
       patternUnits="userSpaceOnUse"
       patternTransform="translate(51.208,120.498)">
      <g
         id="g28888"
         transform="translate(3.7764,52.207)">
        <path
           id="path28890"
           style="fill:none;stroke:#231f20;stroke-opacity:1;stroke-width:0.3;stroke-linecap:butt;stroke-linejoin:miter;stroke-miterlimit:4;stroke-dasharray:none"
           d="M 0,0 -3.776,0" />
      </g>
      <g
         id="g28892"
         transform="translate(15.2734,52.207)">
        <path
           id="path28894"
           style="fill:none;stroke:#231f20;stroke-opacity:1;stroke-width:0.3;stroke-linecap:butt;stroke-linejoin:miter;stroke-miterlimit:4;stroke-dasharray:none"
           d="M 0,0 6.368,0" />
      </g>
      <g
         id="g28896"
         transform="translate(24.1895,52.207)">
        <path
           id="path28898"
           style="fill:none;stroke:#231f20;stroke-opacity:1;stroke-width:0.3;stroke-linecap:butt;stroke-linejoin:miter;stroke-miterlimit:4;stroke-dasharray:none"
           d="M 0,0 6.369,0" />
      </g>
      <g
         id="g28900"
         transform="translate(48.3916,52.207)">
        <path
           id="path28902"
           style="fill:none;stroke:#231f20;stroke-opacity:1;stroke-width:0.3;stroke-linecap:butt;stroke-linejoin:miter;stroke-miterlimit:4;stroke-dasharray:none"
           d="M 0,0 -6.369,0" />
      </g>
      <g
         id="g28904"
         transform="translate(50.9395,52.207)">
        <path
           id="path28906"
           style="fill:none;stroke:#231f20;stroke-opacity:1;stroke-width:0.3;stroke-linecap:butt;stroke-linejoin:miter;stroke-miterlimit:4;stroke-dasharray:none"
           d="M 0,0 2.645,0" />
      </g>
      <g
         id="g28908"
         transform="translate(8.1084,49.0723)">
        <path
           id="path28910"
           style="fill:none;stroke:#231f20;stroke-opacity:1;stroke-width:0.3;stroke-linecap:butt;stroke-linejoin:miter;stroke-miterlimit:4;stroke-dasharray:none"
           d="M 0,0 -6.369,0" />
      </g>
      <g
         id="g28912"
         transform="translate(17.0244,49.0723)">
        <path
           id="path28914"
           style="fill:none;stroke:#231f20;stroke-opacity:1;stroke-width:0.3;stroke-linecap:butt;stroke-linejoin:miter;stroke-miterlimit:4;stroke-dasharray:none"
           d="M 0,0 -6.369,0" />
      </g>
      <g
         id="g28916"
         transform="translate(34.8574,49.0723)">
        <path
           id="path28918"
           style="fill:none;stroke:#231f20;stroke-opacity:1;stroke-width:0.3;stroke-linecap:butt;stroke-linejoin:miter;stroke-miterlimit:4;stroke-dasharray:none"
           d="M 0,0 -6.369,0" />
      </g>
      <g
         id="g28920"
         transform="translate(37.4053,49.0723)">
        <path
           id="path28922"
           style="fill:none;stroke:#231f20;stroke-opacity:1;stroke-width:0.3;stroke-linecap:butt;stroke-linejoin:miter;stroke-miterlimit:4;stroke-dasharray:none"
           d="M 0,0 6.369,0" />
      </g>
      <g
         id="g28924"
         transform="translate(4.3496,46.1025)">
        <path
           id="path28926"
           style="fill:none;stroke:#231f20;stroke-opacity:1;stroke-width:0.3;stroke-linecap:butt;stroke-linejoin:miter;stroke-miterlimit:4;stroke-dasharray:none"
           d="M 0,0 -4.35,0" />
      </g>
      <g
         id="g28928"
         transform="translate(15.8467,46.1025)">
        <path
           id="path28930"
           style="fill:none;stroke:#231f20;stroke-opacity:1;stroke-width:0.3;stroke-linecap:butt;stroke-linejoin:miter;stroke-miterlimit:4;stroke-dasharray:none"
           d="M 0,0 6.369,0" />
      </g>
      <g
         id="g28932"
         transform="translate(24.7627,46.1025)">
        <path
           id="path28934"
           style="fill:none;stroke:#231f20;stroke-opacity:1;stroke-width:0.3;stroke-linecap:butt;stroke-linejoin:miter;stroke-miterlimit:4;stroke-dasharray:none"
           d="M 0,0 6.369,0" />
      </g>
      <g
         id="g28936"
         transform="translate(42.5967,46.1025)">
        <path
           id="path28938"
           style="fill:none;stroke:#231f20;stroke-opacity:1;stroke-width:0.3;stroke-linecap:butt;stroke-linejoin:miter;stroke-miterlimit:4;stroke-dasharray:none"
           d="M 0,0 6.368,0" />
      </g>
      <g
         id="g28940"
         transform="translate(51.5127,46.1025)">
        <path
           id="path28942"
           style="fill:none;stroke:#231f20;stroke-opacity:1;stroke-width:0.3;stroke-linecap:butt;stroke-linejoin:miter;stroke-miterlimit:4;stroke-dasharray:none"
           d="M 0,0 2.071,0" />
      </g>
      <g
         id="g28944"
         transform="translate(7.3115,43.2979)">
        <path
           id="path28946"
           style="fill:none;stroke:#231f20;stroke-opacity:1;stroke-width:0.3;stroke-linecap:butt;stroke-linejoin:miter;stroke-miterlimit:4;stroke-dasharray:none"
           d="M 0,0 -6.369,0" />
      </g>
      <g
         id="g28948"
         transform="translate(16.2285,43.2979)">
        <path
           id="path28950"
           style="fill:none;stroke:#231f20;stroke-opacity:1;stroke-width:0.3;stroke-linecap:butt;stroke-linejoin:miter;stroke-miterlimit:4;stroke-dasharray:none"
           d="M 0,0 -6.369,0" />
      </g>
      <g
         id="g28952"
         transform="translate(34.0615,43.2979)">
        <path
           id="path28954"
           style="fill:none;stroke:#231f20;stroke-opacity:1;stroke-width:0.3;stroke-linecap:butt;stroke-linejoin:miter;stroke-miterlimit:4;stroke-dasharray:none"
           d="M 0,0 -6.369,0" />
      </g>
      <g
         id="g28956"
         transform="translate(36.6094,43.2979)">
        <path
           id="path28958"
           style="fill:none;stroke:#231f20;stroke-opacity:1;stroke-width:0.3;stroke-linecap:butt;stroke-linejoin:miter;stroke-miterlimit:4;stroke-dasharray:none"
           d="M 0,0 6.369,0" />
      </g>
      <g
         id="g28960"
         transform="translate(1.7061,40.3271)">
        <path
           id="path28962"
           style="fill:none;stroke:#231f20;stroke-opacity:1;stroke-width:0.3;stroke-linecap:butt;stroke-linejoin:miter;stroke-miterlimit:4;stroke-dasharray:none"
           d="M 0,0 -1.706,0" />
      </g>
      <g
         id="g28964"
         transform="translate(13.2031,40.3271)">
        <path
           id="path28966"
           style="fill:none;stroke:#231f20;stroke-opacity:1;stroke-width:0.3;stroke-linecap:butt;stroke-linejoin:miter;stroke-miterlimit:4;stroke-dasharray:none"
           d="M 0,0 6.369,0" />
      </g>
      <g
         id="g28968"
         transform="translate(22.1201,40.3271)">
        <path
           id="path28970"
           style="fill:none;stroke:#231f20;stroke-opacity:1;stroke-width:0.3;stroke-linecap:butt;stroke-linejoin:miter;stroke-miterlimit:4;stroke-dasharray:none"
           d="M 0,0 6.368,0" />
      </g>
      <g
         id="g28972"
         transform="translate(39.9531,40.3271)">
        <path
           id="path28974"
           style="fill:none;stroke:#231f20;stroke-opacity:1;stroke-width:0.3;stroke-linecap:butt;stroke-linejoin:miter;stroke-miterlimit:4;stroke-dasharray:none"
           d="M 0,0 6.369,0" />
      </g>
      <g
         id="g28976"
         transform="translate(48.8692,40.3271)">
        <path
           id="path28978"
           style="fill:none;stroke:#231f20;stroke-opacity:1;stroke-width:0.3;stroke-linecap:butt;stroke-linejoin:miter;stroke-miterlimit:4;stroke-dasharray:none"
           d="M 0,0 4.715,0" />
      </g>
      <g
         id="g28980"
         transform="translate(2.9736,37.3232)">
        <path
           id="path28982"
           style="fill:none;stroke:#231f20;stroke-opacity:1;stroke-width:0.3;stroke-linecap:butt;stroke-linejoin:miter;stroke-miterlimit:4;stroke-dasharray:none"
           d="M 0,0 -2.974,0" />
      </g>
      <g
         id="g28984"
         transform="translate(5.5215,37.3232)">
        <path
           id="path28986"
           style="fill:none;stroke:#231f20;stroke-opacity:1;stroke-width:0.3;stroke-linecap:butt;stroke-linejoin:miter;stroke-miterlimit:4;stroke-dasharray:none"
           d="M 0,0 6.369,0" />
      </g>
      <g
         id="g28988"
         transform="translate(23.3545,37.3232)">
        <path
           id="path28990"
           style="fill:none;stroke:#231f20;stroke-opacity:1;stroke-width:0.3;stroke-linecap:butt;stroke-linejoin:miter;stroke-miterlimit:4;stroke-dasharray:none"
           d="M 0,0 6.369,0" />
      </g>
      <g
         id="g28992"
         transform="translate(32.2715,37.3232)">
        <path
           id="path28994"
           style="fill:none;stroke:#231f20;stroke-opacity:1;stroke-width:0.3;stroke-linecap:butt;stroke-linejoin:miter;stroke-miterlimit:4;stroke-dasharray:none"
           d="M 0,0 6.369,0" />
      </g>
      <g
         id="g28996"
         transform="translate(50.1045,37.3232)">
        <path
           id="path28998"
           style="fill:none;stroke:#231f20;stroke-opacity:1;stroke-width:0.3;stroke-linecap:butt;stroke-linejoin:miter;stroke-miterlimit:4;stroke-dasharray:none"
           d="M 0,0 3.479,0" />
      </g>
      <g
         id="g29000"
         transform="translate(2.1836,34.4404)">
        <path
           id="path29002"
           style="fill:none;stroke:#231f20;stroke-opacity:1;stroke-width:0.3;stroke-linecap:butt;stroke-linejoin:miter;stroke-miterlimit:4;stroke-dasharray:none"
           d="M 0,0 -2.184,0" />
      </g>
      <g
         id="g29004"
         transform="translate(20.0498,34.4404)">
        <path
           id="path29006"
           style="fill:none;stroke:#231f20;stroke-opacity:1;stroke-width:0.3;stroke-linecap:butt;stroke-linejoin:miter;stroke-miterlimit:4;stroke-dasharray:none"
           d="M 0,0 -6.369,0" />
      </g>
      <g
         id="g29008"
         transform="translate(22.5977,34.4404)">
        <path
           id="path29010"
           style="fill:none;stroke:#231f20;stroke-opacity:1;stroke-width:0.3;stroke-linecap:butt;stroke-linejoin:miter;stroke-miterlimit:4;stroke-dasharray:none"
           d="M 0,0 6.369,0" />
      </g>
      <g
         id="g29012"
         transform="translate(40.4307,34.4404)">
        <path
           id="path29014"
           style="fill:none;stroke:#231f20;stroke-opacity:1;stroke-width:0.3;stroke-linecap:butt;stroke-linejoin:miter;stroke-miterlimit:4;stroke-dasharray:none"
           d="M 0,0 6.369,0" />
      </g>
      <g
         id="g29016"
         transform="translate(49.3477,34.4404)">
        <path
           id="path29018"
           style="fill:none;stroke:#231f20;stroke-opacity:1;stroke-width:0.3;stroke-linecap:butt;stroke-linejoin:miter;stroke-miterlimit:4;stroke-dasharray:none"
           d="M 0,0 4.236,0" />
      </g>
      <g
         id="g29020"
         transform="translate(6.6748,31.2432)">
        <path
           id="path29022"
           style="fill:none;stroke:#231f20;stroke-opacity:1;stroke-width:0.3;stroke-linecap:butt;stroke-linejoin:miter;stroke-miterlimit:4;stroke-dasharray:none"
           d="M 0,0 -6.369,0" />
      </g>
      <g
         id="g29024"
         transform="translate(15.5918,31.2432)">
        <path
           id="path29026"
           style="fill:none;stroke:#231f20;stroke-opacity:1;stroke-width:0.3;stroke-linecap:butt;stroke-linejoin:miter;stroke-miterlimit:4;stroke-dasharray:none"
           d="M 0,0 -6.369,0" />
      </g>
      <g
         id="g29028"
         transform="translate(27.0557,31.2432)">
        <path
           id="path29030"
           style="fill:none;stroke:#231f20;stroke-opacity:1;stroke-width:0.3;stroke-linecap:butt;stroke-linejoin:miter;stroke-miterlimit:4;stroke-dasharray:none"
           d="M 0,0 6.369,0" />
      </g>
      <g
         id="g29032"
         transform="translate(35.9727,31.2432)">
        <path
           id="path29034"
           style="fill:none;stroke:#231f20;stroke-opacity:1;stroke-width:0.3;stroke-linecap:butt;stroke-linejoin:miter;stroke-miterlimit:4;stroke-dasharray:none"
           d="M 0,0 6.369,0" />
      </g>
      <g
         id="g29036"
         transform="translate(3.458,28.2734)">
        <path
           id="path29038"
           style="fill:none;stroke:#231f20;stroke-opacity:1;stroke-width:0.3;stroke-linecap:butt;stroke-linejoin:miter;stroke-miterlimit:4;stroke-dasharray:none"
           d="M 0,0 -3.458,0" />
      </g>
      <g
         id="g29040"
         transform="translate(21.3233,28.2734)">
        <path
           id="path29042"
           style="fill:none;stroke:#231f20;stroke-opacity:1;stroke-width:0.3;stroke-linecap:butt;stroke-linejoin:miter;stroke-miterlimit:4;stroke-dasharray:none"
           d="M 0,0 -6.368,0" />
      </g>
      <g
         id="g29044"
         transform="translate(23.8711,28.2734)">
        <path
           id="path29046"
           style="fill:none;stroke:#231f20;stroke-opacity:1;stroke-width:0.3;stroke-linecap:butt;stroke-linejoin:miter;stroke-miterlimit:4;stroke-dasharray:none"
           d="M 0,0 6.369,0" />
      </g>
      <g
         id="g29048"
         transform="translate(41.7041,28.2734)">
        <path
           id="path29050"
           style="fill:none;stroke:#231f20;stroke-opacity:1;stroke-width:0.3;stroke-linecap:butt;stroke-linejoin:miter;stroke-miterlimit:4;stroke-dasharray:none"
           d="M 0,0 6.369,0" />
      </g>
      <g
         id="g29052"
         transform="translate(50.6211,28.2734)">
        <path
           id="path29054"
           style="fill:none;stroke:#231f20;stroke-opacity:1;stroke-width:0.3;stroke-linecap:butt;stroke-linejoin:miter;stroke-miterlimit:4;stroke-dasharray:none"
           d="M 0,0 2.963,0" />
      </g>
      <g
         id="g29056"
         transform="translate(7.9483,25.1377)">
        <path
           id="path29058"
           style="fill:none;stroke:#231f20;stroke-opacity:1;stroke-width:0.3;stroke-linecap:butt;stroke-linejoin:miter;stroke-miterlimit:4;stroke-dasharray:none"
           d="M 0,0 -6.368,0" />
      </g>
      <g
         id="g29060"
         transform="translate(10.4961,25.1377)">
        <path
           id="path29062"
           style="fill:none;stroke:#231f20;stroke-opacity:1;stroke-width:0.3;stroke-linecap:butt;stroke-linejoin:miter;stroke-miterlimit:4;stroke-dasharray:none"
           d="M 0,0 6.369,0" />
      </g>
      <g
         id="g29064"
         transform="translate(34.6983,25.1377)">
        <path
           id="path29066"
           style="fill:none;stroke:#231f20;stroke-opacity:1;stroke-width:0.3;stroke-linecap:butt;stroke-linejoin:miter;stroke-miterlimit:4;stroke-dasharray:none"
           d="M 0,0 -6.369,0" />
      </g>
      <g
         id="g29068"
         transform="translate(37.2461,25.1377)">
        <path
           id="path29070"
           style="fill:none;stroke:#231f20;stroke-opacity:1;stroke-width:0.3;stroke-linecap:butt;stroke-linejoin:miter;stroke-miterlimit:4;stroke-dasharray:none"
           d="M 0,0 6.369,0" />
      </g>
      <g
         id="g29072"
         transform="translate(16.707,22.333)">
        <path
           id="path29074"
           style="fill:none;stroke:#231f20;stroke-opacity:1;stroke-width:0.3;stroke-linecap:butt;stroke-linejoin:miter;stroke-miterlimit:4;stroke-dasharray:none"
           d="M 0,0 -6.369,0" />
      </g>
      <g
         id="g29076"
         transform="translate(25.6231,22.333)">
        <path
           id="path29078"
           style="fill:none;stroke:#231f20;stroke-opacity:1;stroke-width:0.3;stroke-linecap:butt;stroke-linejoin:miter;stroke-miterlimit:4;stroke-dasharray:none"
           d="M 0,0 -6.369,0" />
      </g>
      <g
         id="g29080"
         transform="translate(43.457,22.333)">
        <path
           id="path29082"
           style="fill:none;stroke:#231f20;stroke-opacity:1;stroke-width:0.3;stroke-linecap:butt;stroke-linejoin:miter;stroke-miterlimit:4;stroke-dasharray:none"
           d="M 0,0 -6.369,0" />
      </g>
      <g
         id="g29084"
         transform="translate(46.0039,22.333)">
        <path
           id="path29086"
           style="fill:none;stroke:#231f20;stroke-opacity:1;stroke-width:0.3;stroke-linecap:butt;stroke-linejoin:miter;stroke-miterlimit:4;stroke-dasharray:none"
           d="M 0,0 6.369,0" />
      </g>
      <g
         id="g29088"
         transform="translate(6.834,19.1982)">
        <path
           id="path29090"
           style="fill:none;stroke:#231f20;stroke-opacity:1;stroke-width:0.3;stroke-linecap:butt;stroke-linejoin:miter;stroke-miterlimit:4;stroke-dasharray:none"
           d="M 0,0 -6.369,0" />
      </g>
      <g
         id="g29092"
         transform="translate(9.3818,19.1982)">
        <path
           id="path29094"
           style="fill:none;stroke:#231f20;stroke-opacity:1;stroke-width:0.3;stroke-linecap:butt;stroke-linejoin:miter;stroke-miterlimit:4;stroke-dasharray:none"
           d="M 0,0 6.369,0" />
      </g>
      <g
         id="g29096"
         transform="translate(27.2149,19.1982)">
        <path
           id="path29098"
           style="fill:none;stroke:#231f20;stroke-opacity:1;stroke-width:0.3;stroke-linecap:butt;stroke-linejoin:miter;stroke-miterlimit:4;stroke-dasharray:none"
           d="M 0,0 6.369,0" />
      </g>
      <g
         id="g29100"
         transform="translate(36.1318,19.1982)">
        <path
           id="path29102"
           style="fill:none;stroke:#231f20;stroke-opacity:1;stroke-width:0.3;stroke-linecap:butt;stroke-linejoin:miter;stroke-miterlimit:4;stroke-dasharray:none"
           d="M 0,0 6.369,0" />
      </g>
      <g
         id="g29104"
         transform="translate(2.1836,16.2285)">
        <path
           id="path29106"
           style="fill:none;stroke:#231f20;stroke-opacity:1;stroke-width:0.3;stroke-linecap:butt;stroke-linejoin:miter;stroke-miterlimit:4;stroke-dasharray:none"
           d="M 0,0 -2.184,0" />
      </g>
      <g
         id="g29108"
         transform="translate(13.6807,16.2285)">
        <path
           id="path29110"
           style="fill:none;stroke:#231f20;stroke-opacity:1;stroke-width:0.3;stroke-linecap:butt;stroke-linejoin:miter;stroke-miterlimit:4;stroke-dasharray:none"
           d="M 0,0 6.369,0" />
      </g>
      <g
         id="g29112"
         transform="translate(22.5977,16.2285)">
        <path
           id="path29114"
           style="fill:none;stroke:#231f20;stroke-opacity:1;stroke-width:0.3;stroke-linecap:butt;stroke-linejoin:miter;stroke-miterlimit:4;stroke-dasharray:none"
           d="M 0,0 6.369,0" />
      </g>
      <g
         id="g29116"
         transform="translate(46.7998,16.2285)">
        <path
           id="path29118"
           style="fill:none;stroke:#231f20;stroke-opacity:1;stroke-width:0.3;stroke-linecap:butt;stroke-linejoin:miter;stroke-miterlimit:4;stroke-dasharray:none"
           d="M 0,0 -6.369,0" />
      </g>
      <g
         id="g29120"
         transform="translate(49.3477,16.2285)">
        <path
           id="path29122"
           style="fill:none;stroke:#231f20;stroke-opacity:1;stroke-width:0.3;stroke-linecap:butt;stroke-linejoin:miter;stroke-miterlimit:4;stroke-dasharray:none"
           d="M 0,0 4.236,0" />
      </g>
      <g
         id="g29124"
         transform="translate(0,13.2578)">
        <path
           id="path29126"
           style="fill:none;stroke:#231f20;stroke-opacity:1;stroke-width:0.3;stroke-linecap:butt;stroke-linejoin:miter;stroke-miterlimit:4;stroke-dasharray:none"
           d="M 0,0 2.012,0" />
      </g>
      <g
         id="g29128"
         transform="translate(10.9287,13.2578)">
        <path
           id="path29130"
           style="fill:none;stroke:#231f20;stroke-opacity:1;stroke-width:0.3;stroke-linecap:butt;stroke-linejoin:miter;stroke-miterlimit:4;stroke-dasharray:none"
           d="M 0,0 -6.369,0" />
      </g>
      <g
         id="g29132"
         transform="translate(22.3926,13.2578)">
        <path
           id="path29134"
           style="fill:none;stroke:#231f20;stroke-opacity:1;stroke-width:0.3;stroke-linecap:butt;stroke-linejoin:miter;stroke-miterlimit:4;stroke-dasharray:none"
           d="M 0,0 6.369,0" />
      </g>
      <g
         id="g29136"
         transform="translate(37.6787,13.2578)">
        <path
           id="path29138"
           style="fill:none;stroke:#231f20;stroke-opacity:1;stroke-width:0.3;stroke-linecap:butt;stroke-linejoin:miter;stroke-miterlimit:4;stroke-dasharray:none"
           d="M 0,0 -6.369,0" />
      </g>
      <g
         id="g29140"
         transform="translate(49.1426,13.2578)">
        <path
           id="path29142"
           style="fill:none;stroke:#231f20;stroke-opacity:1;stroke-width:0.3;stroke-linecap:butt;stroke-linejoin:miter;stroke-miterlimit:4;stroke-dasharray:none"
           d="M 0,0 4.441,0" />
      </g>
      <g
         id="g29144"
         transform="translate(3.1387,10.4619)">
        <path
           id="path29146"
           style="fill:none;stroke:#231f20;stroke-opacity:1;stroke-width:0.3;stroke-linecap:butt;stroke-linejoin:miter;stroke-miterlimit:4;stroke-dasharray:none"
           d="M 0,0 -3.139,0" />
      </g>
      <g
         id="g29148"
         transform="translate(14.6358,10.4619)">
        <path
           id="path29150"
           style="fill:none;stroke:#231f20;stroke-opacity:1;stroke-width:0.3;stroke-linecap:butt;stroke-linejoin:miter;stroke-miterlimit:4;stroke-dasharray:none"
           d="M 0,0 6.369,0" />
      </g>
      <g
         id="g29152"
         transform="translate(23.5527,10.4619)">
        <path
           id="path29154"
           style="fill:none;stroke:#231f20;stroke-opacity:1;stroke-width:0.3;stroke-linecap:butt;stroke-linejoin:miter;stroke-miterlimit:4;stroke-dasharray:none"
           d="M 0,0 6.369,0" />
      </g>
      <g
         id="g29156"
         transform="translate(41.3858,10.4619)">
        <path
           id="path29158"
           style="fill:none;stroke:#231f20;stroke-opacity:1;stroke-width:0.3;stroke-linecap:butt;stroke-linejoin:miter;stroke-miterlimit:4;stroke-dasharray:none"
           d="M 0,0 6.369,0" />
      </g>
      <g
         id="g29160"
         transform="translate(50.3027,10.4619)">
        <path
           id="path29162"
           style="fill:none;stroke:#231f20;stroke-opacity:1;stroke-width:0.3;stroke-linecap:butt;stroke-linejoin:miter;stroke-miterlimit:4;stroke-dasharray:none"
           d="M 0,0 3.281,0" />
      </g>
      <g
         id="g29164"
         transform="translate(8.2676,7.3271)">
        <path
           id="path29166"
           style="fill:none;stroke:#231f20;stroke-opacity:1;stroke-width:0.3;stroke-linecap:butt;stroke-linejoin:miter;stroke-miterlimit:4;stroke-dasharray:none"
           d="M 0,0 -6.369,0" />
      </g>
      <g
         id="g29168"
         transform="translate(17.1836,7.3271)">
        <path
           id="path29170"
           style="fill:none;stroke:#231f20;stroke-opacity:1;stroke-width:0.3;stroke-linecap:butt;stroke-linejoin:miter;stroke-miterlimit:4;stroke-dasharray:none"
           d="M 0,0 -6.369,0" />
      </g>
      <g
         id="g29172"
         transform="translate(35.0166,7.3271)">
        <path
           id="path29174"
           style="fill:none;stroke:#231f20;stroke-opacity:1;stroke-width:0.3;stroke-linecap:butt;stroke-linejoin:miter;stroke-miterlimit:4;stroke-dasharray:none"
           d="M 0,0 -6.368,0" />
      </g>
      <g
         id="g29176"
         transform="translate(43.9336,7.3271)">
        <path
           id="path29178"
           style="fill:none;stroke:#231f20;stroke-opacity:1;stroke-width:0.3;stroke-linecap:butt;stroke-linejoin:miter;stroke-miterlimit:4;stroke-dasharray:none"
           d="M 0,0 -6.369,0" />
      </g>
      <g
         id="g29180"
         transform="translate(6.8291,4.3574)">
        <path
           id="path29182"
           style="fill:none;stroke:#231f20;stroke-opacity:1;stroke-width:0.3;stroke-linecap:butt;stroke-linejoin:miter;stroke-miterlimit:4;stroke-dasharray:none"
           d="M 0,0 -6.369,0" />
      </g>
      <g
         id="g29184"
         transform="translate(24.6953,4.3574)">
        <path
           id="path29186"
           style="fill:none;stroke:#231f20;stroke-opacity:1;stroke-width:0.3;stroke-linecap:butt;stroke-linejoin:miter;stroke-miterlimit:4;stroke-dasharray:none"
           d="M 0,0 -6.369,0" />
      </g>
      <g
         id="g29188"
         transform="translate(33.6123,4.3574)">
        <path
           id="path29190"
           style="fill:none;stroke:#231f20;stroke-opacity:1;stroke-width:0.3;stroke-linecap:butt;stroke-linejoin:miter;stroke-miterlimit:4;stroke-dasharray:none"
           d="M 0,0 -6.369,0" />
      </g>
      <g
         id="g29192"
         transform="translate(51.4453,4.3574)">
        <path
           id="path29194"
           style="fill:none;stroke:#231f20;stroke-opacity:1;stroke-width:0.3;stroke-linecap:butt;stroke-linejoin:miter;stroke-miterlimit:4;stroke-dasharray:none"
           d="M 0,0 -6.369,0" />
      </g>
      <g
         id="g29196"
         transform="translate(8.5859,1.3867)">
        <path
           id="path29198"
           style="fill:none;stroke:#231f20;stroke-opacity:1;stroke-width:0.3;stroke-linecap:butt;stroke-linejoin:miter;stroke-miterlimit:4;stroke-dasharray:none"
           d="M 0,0 -6.369,0" />
      </g>
      <g
         id="g29200"
         transform="translate(17.502,1.3867)">
        <path
           id="path29202"
           style="fill:none;stroke:#231f20;stroke-opacity:1;stroke-width:0.3;stroke-linecap:butt;stroke-linejoin:miter;stroke-miterlimit:4;stroke-dasharray:none"
           d="M 0,0 -6.369,0" />
      </g>
      <g
         id="g29204"
         transform="translate(35.3359,1.3867)">
        <path
           id="path29206"
           style="fill:none;stroke:#231f20;stroke-opacity:1;stroke-width:0.3;stroke-linecap:butt;stroke-linejoin:miter;stroke-miterlimit:4;stroke-dasharray:none"
           d="M 0,0 -6.369,0" />
      </g>
      <g
         id="g29208"
         transform="translate(44.252,1.3867)">
        <path
           id="path29210"
           style="fill:none;stroke:#231f20;stroke-opacity:1;stroke-width:0.3;stroke-linecap:butt;stroke-linejoin:miter;stroke-miterlimit:4;stroke-dasharray:none"
           d="M 0,0 -6.369,0" />
      </g>
      <g
         id="g29212"
         transform="translate(9.4522,52.8271)">
        <path
           id="path29214"
           style="fill:none;stroke:#231f20;stroke-opacity:1;stroke-width:0.3;stroke-linecap:butt;stroke-linejoin:miter;stroke-miterlimit:4;stroke-dasharray:none"
           d="M 0,0 C -3.146,-0.109 -4.719,-1.54 0.121,-1.43 4.961,-1.319 3.63,0.11 0,0 z" />
      </g>
      <g
         id="g29216"
         transform="translate(36.2744,52.8271)">
        <path
           id="path29218"
           style="fill:none;stroke:#231f20;stroke-opacity:1;stroke-width:0.3;stroke-linecap:butt;stroke-linejoin:miter;stroke-miterlimit:4;stroke-dasharray:none"
           d="M 0,0 C -3.145,-0.109 -4.719,-1.54 0.121,-1.43 4.961,-1.319 3.63,0.11 0,0 z" />
      </g>
      <g
         id="g29220"
         transform="translate(22.7852,49.707)">
        <path
           id="path29222"
           style="fill:none;stroke:#231f20;stroke-opacity:1;stroke-width:0.3;stroke-linecap:butt;stroke-linejoin:miter;stroke-miterlimit:4;stroke-dasharray:none"
           d="M 0,0 C -3.146,-0.109 -4.719,-1.54 0.121,-1.43 4.961,-1.32 3.63,0.11 0,0 z" />
      </g>
      <g
         id="g29224"
         transform="translate(49.6084,49.707)">
        <path
           id="path29226"
           style="fill:none;stroke:#231f20;stroke-opacity:1;stroke-width:0.3;stroke-linecap:butt;stroke-linejoin:miter;stroke-miterlimit:4;stroke-dasharray:none"
           d="M 0,0 C -3.146,-0.109 -4.72,-1.54 0.121,-1.43 4.961,-1.32 3.63,0.11 0,0 z" />
      </g>
      <g
         id="g29228"
         transform="translate(10.2725,45.3809)">
        <path
           id="path29230"
           style="fill:none;stroke:#231f20;stroke-opacity:1;stroke-width:0.3;stroke-linecap:butt;stroke-linejoin:miter;stroke-miterlimit:4;stroke-dasharray:none"
           d="M 0,0 C 4.841,0.11 3.51,1.541 -0.121,1.431 -3.267,1.32 -4.84,-0.109 0,0 z" />
      </g>
      <g
         id="g29232"
         transform="translate(36.9746,46.8115)">
        <path
           id="path29234"
           style="fill:none;stroke:#231f20;stroke-opacity:1;stroke-width:0.3;stroke-linecap:butt;stroke-linejoin:miter;stroke-miterlimit:4;stroke-dasharray:none"
           d="M 0,0 C -3.146,-0.11 -4.719,-1.54 0.121,-1.431 4.961,-1.32 3.63,0.11 0,0 z" />
      </g>
      <g
         id="g29236"
         transform="translate(21.9414,44.207)">
        <path
           id="path29238"
           style="fill:none;stroke:#231f20;stroke-opacity:1;stroke-width:0.3;stroke-linecap:butt;stroke-linejoin:miter;stroke-miterlimit:4;stroke-dasharray:none"
           d="M 0,0 C -3.146,-0.109 -4.719,-1.54 0.121,-1.43 4.961,-1.32 3.63,0.11 0,0 z" />
      </g>
      <g
         id="g29240"
         transform="translate(48.8848,42.7773)">
        <path
           id="path29242"
           style="fill:none;stroke:#231f20;stroke-opacity:1;stroke-width:0.3;stroke-linecap:butt;stroke-linejoin:miter;stroke-miterlimit:4;stroke-dasharray:none"
           d="M 0,0 C 4.84,0.109 3.51,1.54 -0.121,1.43 -3.267,1.32 -4.84,-0.11 0,0 z" />
      </g>
      <g
         id="g29244"
         transform="translate(7.4414,41.207)">
        <path
           id="path29246"
           style="fill:none;stroke:#231f20;stroke-opacity:1;stroke-width:0.3;stroke-linecap:butt;stroke-linejoin:miter;stroke-miterlimit:4;stroke-dasharray:none"
           d="M 0,0 C -3.146,-0.109 -4.719,-1.54 0.121,-1.43 4.961,-1.32 3.63,0.11 0,0 z" />
      </g>
      <g
         id="g29248"
         transform="translate(34.2637,41.207)">
        <path
           id="path29250"
           style="fill:none;stroke:#231f20;stroke-opacity:1;stroke-width:0.3;stroke-linecap:butt;stroke-linejoin:miter;stroke-miterlimit:4;stroke-dasharray:none"
           d="M 0,0 C -3.146,-0.109 -4.719,-1.54 0.121,-1.43 4.961,-1.32 3.631,0.11 0,0 z" />
      </g>
      <g
         id="g29252"
         transform="translate(17.5068,38.04)">
        <path
           id="path29254"
           style="fill:none;stroke:#231f20;stroke-opacity:1;stroke-width:0.3;stroke-linecap:butt;stroke-linejoin:miter;stroke-miterlimit:4;stroke-dasharray:none"
           d="M 0,0 C -3.146,-0.109 -4.72,-1.539 0.121,-1.43 4.961,-1.319 3.63,0.11 0,0 z" />
      </g>
      <g
         id="g29256"
         transform="translate(44.3291,38.04)">
        <path
           id="path29258"
           style="fill:none;stroke:#231f20;stroke-opacity:1;stroke-width:0.3;stroke-linecap:butt;stroke-linejoin:miter;stroke-miterlimit:4;stroke-dasharray:none"
           d="M 0,0 C -3.146,-0.109 -4.719,-1.539 0.121,-1.43 4.961,-1.319 3.63,0.11 0,0 z" />
      </g>
      <g
         id="g29260"
         transform="translate(7.8955,33.7773)">
        <path
           id="path29262"
           style="fill:none;stroke:#231f20;stroke-opacity:1;stroke-width:0.3;stroke-linecap:butt;stroke-linejoin:miter;stroke-miterlimit:4;stroke-dasharray:none"
           d="M 0,0 C 4.84,0.109 3.509,1.54 -0.121,1.43 -3.267,1.32 -4.84,-0.11 0,0 z" />
      </g>
      <g
         id="g29264"
         transform="translate(34.7188,33.7773)">
        <path
           id="path29266"
           style="fill:none;stroke:#231f20;stroke-opacity:1;stroke-width:0.3;stroke-linecap:butt;stroke-linejoin:miter;stroke-miterlimit:4;stroke-dasharray:none"
           d="M 0,0 C 4.84,0.109 3.509,1.54 -0.121,1.43 -3.268,1.32 -4.841,-0.11 0,0 z" />
      </g>
      <g
         id="g29268"
         transform="translate(21.1084,32.04)">
        <path
           id="path29270"
           style="fill:none;stroke:#231f20;stroke-opacity:1;stroke-width:0.3;stroke-linecap:butt;stroke-linejoin:miter;stroke-miterlimit:4;stroke-dasharray:none"
           d="M 0,0 C -3.146,-0.109 -4.72,-1.539 0.121,-1.43 4.961,-1.319 3.63,0.11 0,0 z" />
      </g>
      <g
         id="g29272"
         transform="translate(47.9307,32.04)">
        <path
           id="path29274"
           style="fill:none;stroke:#231f20;stroke-opacity:1;stroke-width:0.3;stroke-linecap:butt;stroke-linejoin:miter;stroke-miterlimit:4;stroke-dasharray:none"
           d="M 0,0 C -3.146,-0.109 -4.719,-1.539 0.121,-1.43 4.961,-1.319 3.63,0.11 0,0 z" />
      </g>
      <g
         id="g29276"
         transform="translate(9.3955,27.6104)">
        <path
           id="path29278"
           style="fill:none;stroke:#231f20;stroke-opacity:1;stroke-width:0.3;stroke-linecap:butt;stroke-linejoin:miter;stroke-miterlimit:4;stroke-dasharray:none"
           d="M 0,0 C 4.84,0.11 3.509,1.54 -0.121,1.43 -3.267,1.32 -4.84,-0.109 0,0 z" />
      </g>
      <g
         id="g29280"
         transform="translate(36.0977,29.04)">
        <path
           id="path29282"
           style="fill:none;stroke:#231f20;stroke-opacity:1;stroke-width:0.3;stroke-linecap:butt;stroke-linejoin:miter;stroke-miterlimit:4;stroke-dasharray:none"
           d="M 0,0 C -3.146,-0.109 -4.72,-1.539 0.121,-1.43 4.961,-1.319 3.63,0.11 0,0 z" />
      </g>
      <g
         id="g29284"
         transform="translate(22.2744,26.04)">
        <path
           id="path29286"
           style="fill:none;stroke:#231f20;stroke-opacity:1;stroke-width:0.3;stroke-linecap:butt;stroke-linejoin:miter;stroke-miterlimit:4;stroke-dasharray:none"
           d="M 0,0 C -3.145,-0.109 -4.719,-1.539 0.121,-1.43 4.961,-1.319 3.63,0.11 0,0 z" />
      </g>
      <g
         id="g29288"
         transform="translate(49.0977,26.04)">
        <path
           id="path29290"
           style="fill:none;stroke:#231f20;stroke-opacity:1;stroke-width:0.3;stroke-linecap:butt;stroke-linejoin:miter;stroke-miterlimit:4;stroke-dasharray:none"
           d="M 0,0 C -3.146,-0.109 -4.72,-1.539 0.121,-1.43 4.961,-1.319 3.63,0.11 0,0 z" />
      </g>
      <g
         id="g29292"
         transform="translate(4.8018,23.04)">
        <path
           id="path29294"
           style="fill:none;stroke:#231f20;stroke-opacity:1;stroke-width:0.3;stroke-linecap:butt;stroke-linejoin:miter;stroke-miterlimit:4;stroke-dasharray:none"
           d="M 0,0 C -3.146,-0.109 -4.719,-1.539 0.121,-1.43 4.961,-1.319 3.631,0.11 0,0 z" />
      </g>
      <g
         id="g29296"
         transform="translate(31.7461,21.6104)">
        <path
           id="path29298"
           style="fill:none;stroke:#231f20;stroke-opacity:1;stroke-width:0.3;stroke-linecap:butt;stroke-linejoin:miter;stroke-miterlimit:4;stroke-dasharray:none"
           d="M 0,0 C 4.84,0.11 3.509,1.54 -0.121,1.43 -3.268,1.32 -4.841,-0.109 0,0 z" />
      </g>
      <g
         id="g29300"
         transform="translate(21.7295,18.4434)">
        <path
           id="path29302"
           style="fill:none;stroke:#231f20;stroke-opacity:1;stroke-width:0.3;stroke-linecap:butt;stroke-linejoin:miter;stroke-miterlimit:4;stroke-dasharray:none"
           d="M 0,0 C 4.84,0.11 3.509,1.541 -0.121,1.431 -3.268,1.32 -4.841,-0.109 0,0 z" />
      </g>
      <g
         id="g29304"
         transform="translate(48.5518,18.4434)">
        <path
           id="path29306"
           style="fill:none;stroke:#231f20;stroke-opacity:1;stroke-width:0.3;stroke-linecap:butt;stroke-linejoin:miter;stroke-miterlimit:4;stroke-dasharray:none"
           d="M 0,0 C 4.84,0.11 3.509,1.541 -0.121,1.431 -3.268,1.32 -4.84,-0.109 0,0 z" />
      </g>
      <g
         id="g29308"
         transform="translate(7.9414,16.874)">
        <path
           id="path29310"
           style="fill:none;stroke:#231f20;stroke-opacity:1;stroke-width:0.3;stroke-linecap:butt;stroke-linejoin:miter;stroke-miterlimit:4;stroke-dasharray:none"
           d="M 0,0 C -3.146,-0.11 -4.719,-1.54 0.121,-1.431 4.961,-1.32 3.63,0.11 0,0 z" />
      </g>
      <g
         id="g29312"
         transform="translate(34.7637,16.874)">
        <path
           id="path29314"
           style="fill:none;stroke:#231f20;stroke-opacity:1;stroke-width:0.3;stroke-linecap:butt;stroke-linejoin:miter;stroke-miterlimit:4;stroke-dasharray:none"
           d="M 0,0 C -3.146,-0.11 -4.719,-1.54 0.121,-1.431 4.961,-1.32 3.631,0.11 0,0 z" />
      </g>
      <g
         id="g29316"
         transform="translate(16.7031,12.6104)">
        <path
           id="path29318"
           style="fill:none;stroke:#231f20;stroke-opacity:1;stroke-width:0.3;stroke-linecap:butt;stroke-linejoin:miter;stroke-miterlimit:4;stroke-dasharray:none"
           d="M 0,0 C 4.84,0.11 3.509,1.54 -0.121,1.43 -3.267,1.32 -4.84,-0.109 0,0 z" />
      </g>
      <g
         id="g29320"
         transform="translate(43.5254,12.6104)">
        <path
           id="path29322"
           style="fill:none;stroke:#231f20;stroke-opacity:1;stroke-width:0.3;stroke-linecap:butt;stroke-linejoin:miter;stroke-miterlimit:4;stroke-dasharray:none"
           d="M 0,0 C 4.841,0.11 3.51,1.54 -0.12,1.43 -3.267,1.32 -4.84,-0.109 0,0 z" />
      </g>
      <g
         id="g29324"
         transform="translate(9.1123,9.7275)">
        <path
           id="path29326"
           style="fill:none;stroke:#231f20;stroke-opacity:1;stroke-width:0.3;stroke-linecap:butt;stroke-linejoin:miter;stroke-miterlimit:4;stroke-dasharray:none"
           d="M 0,0 C 4.84,0.109 3.509,1.54 -0.121,1.43 -3.268,1.32 -4.84,-0.11 0,0 z" />
      </g>
      <g
         id="g29328"
         transform="translate(35.9346,9.7275)">
        <path
           id="path29330"
           style="fill:none;stroke:#231f20;stroke-opacity:1;stroke-width:0.3;stroke-linecap:butt;stroke-linejoin:miter;stroke-miterlimit:4;stroke-dasharray:none"
           d="M 0,0 C 4.84,0.109 3.51,1.54 -0.121,1.43 -3.267,1.32 -4.84,-0.11 0,0 z" />
      </g>
      <g
         id="g29332"
         transform="translate(22.7295,6.6104)">
        <path
           id="path29334"
           style="fill:none;stroke:#231f20;stroke-opacity:1;stroke-width:0.3;stroke-linecap:butt;stroke-linejoin:miter;stroke-miterlimit:4;stroke-dasharray:none"
           d="M 0,0 C 4.84,0.11 3.509,1.54 -0.121,1.43 -3.268,1.32 -4.841,-0.109 0,0 z" />
      </g>
      <g
         id="g29336"
         transform="translate(49.4307,8.04)">
        <path
           id="path29338"
           style="fill:none;stroke:#231f20;stroke-opacity:1;stroke-width:0.3;stroke-linecap:butt;stroke-linejoin:miter;stroke-miterlimit:4;stroke-dasharray:none"
           d="M 0,0 C -3.146,-0.109 -4.719,-1.539 0.121,-1.43 4.961,-1.319 3.63,0.11 0,0 z" />
      </g>
      <g
         id="g29340"
         transform="translate(12.6602,3.6104)">
        <path
           id="path29342"
           style="fill:none;stroke:#231f20;stroke-opacity:1;stroke-width:0.3;stroke-linecap:butt;stroke-linejoin:miter;stroke-miterlimit:4;stroke-dasharray:none"
           d="M 0,0 C 4.84,0.11 3.509,1.54 -0.121,1.43 -3.267,1.32 -4.84,-0.109 0,0 z" />
      </g>
      <g
         id="g29344"
         transform="translate(39.4834,3.6104)">
        <path
           id="path29346"
           style="fill:none;stroke:#231f20;stroke-opacity:1;stroke-width:0.3;stroke-linecap:butt;stroke-linejoin:miter;stroke-miterlimit:4;stroke-dasharray:none"
           d="M 0,0 C 4.84,0.11 3.509,1.54 -0.121,1.43 -3.268,1.32 -4.841,-0.109 0,0 z" />
      </g>
      <g
         id="g29348"
         transform="translate(50.0586,0.5225)">
        <path
           id="path29350"
           style="fill:none;stroke:#231f20;stroke-opacity:1;stroke-width:0.3;stroke-linecap:butt;stroke-linejoin:miter;stroke-miterlimit:4;stroke-dasharray:none"
           d="M 0,0 C 4.84,0.11 3.509,1.54 -0.121,1.43 -3.268,1.32 -4.841,-0.11 0,0 z" />
      </g>
      <g
         id="g29352"
         transform="translate(23.2295,0.5645)">
        <path
           id="path29354"
           style="fill:none;stroke:#231f20;stroke-opacity:1;stroke-width:0.3;stroke-linecap:butt;stroke-linejoin:miter;stroke-miterlimit:4;stroke-dasharray:none"
           d="M 0,0 C 4.84,0.109 3.509,1.54 -0.121,1.43 -3.268,1.319 -4.841,-0.11 0,0 z" />
      </g>
    </pattern>
  </defs>
  <sodipodi:namedview
     id="base"
     pagecolor="#ffffff"
     bordercolor="#666666"
     borderopacity="1.0"
     inkscape:pageopacity="0.0"
     inkscape:pageshadow="2"
     inkscape:zoom="7.9195959"
     inkscape:cx="-9.107137"
     inkscape:cy="22.388031"
     inkscape:document-units="mm"
     inkscape:current-layer="layer1"
     showgrid="false"
     inkscape:window-width="1600"
     inkscape:window-height="838"
     inkscape:window-x="1592"
     inkscape:window-y="-8"
     inkscape:window-maximized="1" />
  <metadata
     id="metadata71738">
    <rdf:RDF>
      <cc:Work
         rdf:about="">
        <dc:format>image/svg+xml</dc:format>
        <dc:type
           rdf:resource="http://purl.org/dc/dcmitype/StillImage" />
        <dc:title></dc:title>
      </cc:Work>
    </rdf:RDF>
  </metadata>
  <g
     inkscape:label="Layer 1"
     inkscape:groupmode="layer"
     id="layer1"
     transform="translate(-108.24293,-165.87989)">
    <path
       inkscape:connector-curvature="0"
       d="m 126.10231,165.87989 h -17.85938 v 14.28784 h 17.85938 z"
       style="fill:url(#pattern77963);fill-opacity:1;fill-rule:nonzero;stroke:none;stroke-width:0.26458332"
       id="path29356" />
  </g>
</svg>
