<?xml version="1.0" encoding="UTF-8" standalone="no"?>
<!-- Created with Inkscape (http://www.inkscape.org/) -->

<svg
   xmlns:dc="http://purl.org/dc/elements/1.1/"
   xmlns:cc="http://creativecommons.org/ns#"
   xmlns:rdf="http://www.w3.org/1999/02/22-rdf-syntax-ns#"
   xmlns:svg="http://www.w3.org/2000/svg"
   xmlns="http://www.w3.org/2000/svg"
   xmlns:xlink="http://www.w3.org/1999/xlink"
   xmlns:sodipodi="http://sodipodi.sourceforge.net/DTD/sodipodi-0.dtd"
   xmlns:inkscape="http://www.inkscape.org/namespaces/inkscape"
   width="17.859369mm"
   height="14.2875mm"
   viewBox="0 0 17.859369 14.2875"
   version="1.1"
   id="svg89382"
   inkscape:version="0.92.2 (5c3e80d, 2017-08-06)"
   sodipodi:docname="653.svg">
  <defs
     id="defs89376">
    <pattern
       inkscape:collect="always"
       xlink:href="#pattern136343"
       id="pattern79548"
       patternTransform="matrix(0.33072916,0,0,-0.33072916,-313.953,224.03327)" />
    <pattern
       inkscape:collect="always"
       xlink:href="#sed653"
       id="pattern136343"
       patternTransform="translate(-72.43937,427.96051)" />
    <pattern
       id="sed653"
       height="54.125"
       width="54.125"
       y="0"
       x="0"
       patternUnits="userSpaceOnUse"
       patternTransform="translate(18.6875,97.5605)">
      <g
         id="g2366"
         transform="translate(21.161,25.3535)">
        <path
           id="path2368"
           style="fill:none;stroke:#231f20;stroke-opacity:1;stroke-width:0.3;stroke-linecap:butt;stroke-linejoin:miter;stroke-miterlimit:4;stroke-dasharray:none"
           d="m 0,0 2.97,0 c 0.413,0.99 2.063,1.011 2.393,-0.021 l 2.928,0" />
      </g>
      <g
         id="g2370"
         transform="translate(21.161,24.0335)">
        <path
           id="path2372"
           style="fill:none;stroke:#231f20;stroke-opacity:1;stroke-width:0.3;stroke-linecap:butt;stroke-linejoin:miter;stroke-miterlimit:4;stroke-dasharray:none"
           d="m 0,0 2.97,0 c 0.413,-0.99 2.063,-1.011 2.393,0.021 l 2.928,0" />
      </g>
      <g
         id="g2374"
         transform="translate(28.4057,16.9178)">
        <path
           id="path2376"
           style="fill:none;stroke:#231f20;stroke-opacity:1;stroke-width:0.3;stroke-linecap:butt;stroke-linejoin:miter;stroke-miterlimit:4;stroke-dasharray:none"
           d="m 0,0 2.97,0 c 0.413,0.99 2.063,1.011 2.393,-0.021 l 2.928,0" />
      </g>
      <g
         id="g2378"
         transform="translate(28.4057,15.5978)">
        <path
           id="path2380"
           style="fill:none;stroke:#231f20;stroke-opacity:1;stroke-width:0.3;stroke-linecap:butt;stroke-linejoin:miter;stroke-miterlimit:4;stroke-dasharray:none"
           d="m 0,0 2.97,0 c 0.413,-0.99 2.063,-1.011 2.393,0.021 l 2.928,0" />
      </g>
      <g
         id="g2382"
         transform="translate(1.7625,3.8451)">
        <path
           id="path2384"
           style="fill:none;stroke:#231f20;stroke-opacity:1;stroke-width:0.3;stroke-linecap:butt;stroke-linejoin:miter;stroke-miterlimit:4;stroke-dasharray:none"
           d="m 0,0 2.97,0 c 0.413,0.99 2.063,1.011 2.393,-0.021 l 2.928,0" />
      </g>
      <g
         id="g2386"
         transform="translate(1.7625,2.5251)">
        <path
           id="path2388"
           style="fill:none;stroke:#231f20;stroke-opacity:1;stroke-width:0.3;stroke-linecap:butt;stroke-linejoin:miter;stroke-miterlimit:4;stroke-dasharray:none"
           d="m 0,0 2.97,0 c 0.413,-0.99 2.063,-1.011 2.393,0.021 l 2.928,0" />
      </g>
      <g
         id="g2390"
         transform="translate(17.4292,45.1784)">
        <path
           id="path2392"
           style="fill:none;stroke:#231f20;stroke-opacity:1;stroke-width:0.3;stroke-linecap:butt;stroke-linejoin:miter;stroke-miterlimit:4;stroke-dasharray:none"
           d="m 0,0 2.97,0 c 0.413,0.99 2.063,1.011 2.393,-0.021 l 2.928,0" />
      </g>
      <g
         id="g2394"
         transform="translate(17.4292,43.8584)">
        <path
           id="path2396"
           style="fill:none;stroke:#231f20;stroke-opacity:1;stroke-width:0.3;stroke-linecap:butt;stroke-linejoin:miter;stroke-miterlimit:4;stroke-dasharray:none"
           d="m 0,0 2.97,0 c 0.413,-0.99 2.063,-1.011 2.393,0.021 l 2.928,0" />
      </g>
      <g
         id="g2398"
         transform="translate(43.0959,47.8451)">
        <path
           id="path2400"
           style="fill:none;stroke:#231f20;stroke-opacity:1;stroke-width:0.3;stroke-linecap:butt;stroke-linejoin:miter;stroke-miterlimit:4;stroke-dasharray:none"
           d="m 0,0 2.97,0 c 0.412,0.99 2.063,1.011 2.393,-0.021 l 2.928,0" />
      </g>
      <g
         id="g2402"
         transform="translate(43.0959,46.5251)">
        <path
           id="path2404"
           style="fill:none;stroke:#231f20;stroke-opacity:1;stroke-width:0.3;stroke-linecap:butt;stroke-linejoin:miter;stroke-miterlimit:4;stroke-dasharray:none"
           d="m 0,0 2.97,0 c 0.412,-0.99 2.063,-1.011 2.393,0.021 l 2.928,0" />
      </g>
      <g
         id="g2406"
         transform="translate(35.2479,37.8954)">
        <path
           id="path2408"
           style="fill:none;stroke:#231f20;stroke-opacity:1;stroke-width:0.3;stroke-linecap:butt;stroke-linejoin:miter;stroke-miterlimit:4;stroke-dasharray:none"
           d="m 0,0 2.97,0 c 0.413,0.99 2.063,1.011 2.393,-0.021 l 2.928,0" />
      </g>
      <g
         id="g2410"
         transform="translate(35.2479,36.5754)">
        <path
           id="path2412"
           style="fill:none;stroke:#231f20;stroke-opacity:1;stroke-width:0.3;stroke-linecap:butt;stroke-linejoin:miter;stroke-miterlimit:4;stroke-dasharray:none"
           d="m 0,0 2.97,0 c 0.413,-0.99 2.063,-1.011 2.393,0.021 l 2.928,0" />
      </g>
      <g
         id="g2414"
         transform="translate(44.9005,22.8579)">
        <path
           id="path2416"
           style="fill:none;stroke:#231f20;stroke-opacity:1;stroke-width:0.3;stroke-linecap:butt;stroke-linejoin:miter;stroke-miterlimit:4;stroke-dasharray:none"
           d="m 0,0 2.97,0 c 0.413,0.99 2.063,1.011 2.393,-0.021 l 2.928,0" />
      </g>
      <g
         id="g2418"
         transform="translate(44.9005,21.5379)">
        <path
           id="path2420"
           style="fill:none;stroke:#231f20;stroke-opacity:1;stroke-width:0.3;stroke-linecap:butt;stroke-linejoin:miter;stroke-miterlimit:4;stroke-dasharray:none"
           d="m 0,0 2.97,0 c 0.413,-0.99 2.063,-1.011 2.393,0.021 l 2.928,0" />
      </g>
      <g
         id="g2422"
         transform="translate(44.818,12.7103)">
        <path
           id="path2424"
           style="fill:none;stroke:#231f20;stroke-opacity:1;stroke-width:0.3;stroke-linecap:butt;stroke-linejoin:miter;stroke-miterlimit:4;stroke-dasharray:none"
           d="m 0,0 2.97,0 c 0.412,0.99 2.062,1.011 2.392,-0.021 l 2.929,0" />
      </g>
      <g
         id="g2426"
         transform="translate(44.818,11.3903)">
        <path
           id="path2428"
           style="fill:none;stroke:#231f20;stroke-opacity:1;stroke-width:0.3;stroke-linecap:butt;stroke-linejoin:miter;stroke-miterlimit:4;stroke-dasharray:none"
           d="m 0,0 2.97,0 c 0.412,-0.99 2.062,-1.011 2.392,0.021 l 2.929,0" />
      </g>
      <g
         id="g2430"
         transform="translate(35.0004,4.1784)">
        <path
           id="path2432"
           style="fill:none;stroke:#231f20;stroke-opacity:1;stroke-width:0.3;stroke-linecap:butt;stroke-linejoin:miter;stroke-miterlimit:4;stroke-dasharray:none"
           d="m 0,0 2.97,0 c 0.413,0.99 2.063,1.011 2.393,-0.021 l 2.928,0" />
      </g>
      <g
         id="g2434"
         transform="translate(35.0004,2.8584)">
        <path
           id="path2436"
           style="fill:none;stroke:#231f20;stroke-opacity:1;stroke-width:0.3;stroke-linecap:butt;stroke-linejoin:miter;stroke-miterlimit:4;stroke-dasharray:none"
           d="m 0,0 2.97,0 c 0.413,-0.99 2.063,-1.011 2.393,0.021 l 2.928,0" />
      </g>
      <g
         id="g2438"
         transform="translate(16.6303,7.4784)">
        <path
           id="path2440"
           style="fill:none;stroke:#231f20;stroke-opacity:1;stroke-width:0.3;stroke-linecap:butt;stroke-linejoin:miter;stroke-miterlimit:4;stroke-dasharray:none"
           d="m 0,0 2.97,0 c 0.413,0.99 2.063,1.011 2.393,-0.021 l 2.928,0" />
      </g>
      <g
         id="g2442"
         transform="translate(16.6303,6.1584)">
        <path
           id="path2444"
           style="fill:none;stroke:#231f20;stroke-opacity:1;stroke-width:0.3;stroke-linecap:butt;stroke-linejoin:miter;stroke-miterlimit:4;stroke-dasharray:none"
           d="m 0,0 2.97,0 c 0.413,-0.99 2.063,-1.011 2.393,0.021 l 2.928,0" />
      </g>
      <g
         id="g2446"
         transform="translate(5.1907,17.0287)">
        <path
           id="path2448"
           style="fill:none;stroke:#231f20;stroke-opacity:1;stroke-width:0.3;stroke-linecap:butt;stroke-linejoin:miter;stroke-miterlimit:4;stroke-dasharray:none"
           d="m 0,0 2.97,0 c 0.412,0.99 2.063,1.011 2.393,-0.021 l 2.928,0" />
      </g>
      <g
         id="g2450"
         transform="translate(5.1907,15.7087)">
        <path
           id="path2452"
           style="fill:none;stroke:#231f20;stroke-opacity:1;stroke-width:0.3;stroke-linecap:butt;stroke-linejoin:miter;stroke-miterlimit:4;stroke-dasharray:none"
           d="m 0,0 2.97,0 c 0.412,-0.99 2.063,-1.011 2.393,0.021 l 2.928,0" />
      </g>
      <g
         id="g2454"
         transform="translate(0.9002,32.159)">
        <path
           id="path2456"
           style="fill:none;stroke:#231f20;stroke-opacity:1;stroke-width:0.3;stroke-linecap:butt;stroke-linejoin:miter;stroke-miterlimit:4;stroke-dasharray:none"
           d="m 0,0 2.97,0 c 0.412,0.99 2.063,1.011 2.393,-0.021 l 2.928,0" />
      </g>
      <g
         id="g2458"
         transform="translate(0.9002,30.839)">
        <path
           id="path2460"
           style="fill:none;stroke:#231f20;stroke-opacity:1;stroke-width:0.3;stroke-linecap:butt;stroke-linejoin:miter;stroke-miterlimit:4;stroke-dasharray:none"
           d="m 0,0 2.97,0 c 0.412,-0.99 2.063,-1.011 2.393,0.021 l 2.928,0" />
      </g>
    </pattern>
  </defs>
  <sodipodi:namedview
     id="base"
     pagecolor="#ffffff"
     bordercolor="#666666"
     borderopacity="1.0"
     inkscape:pageopacity="0.0"
     inkscape:pageshadow="2"
     inkscape:zoom="0.35"
     inkscape:cx="1325.1786"
     inkscape:cy="129.85715"
     inkscape:document-units="mm"
     inkscape:current-layer="layer1"
     showgrid="false"
     inkscape:window-width="1600"
     inkscape:window-height="838"
     inkscape:window-x="1592"
     inkscape:window-y="-8"
     inkscape:window-maximized="1" />
  <metadata
     id="metadata89379">
    <rdf:RDF>
      <cc:Work
         rdf:about="">
        <dc:format>image/svg+xml</dc:format>
        <dc:type
           rdf:resource="http://purl.org/dc/dcmitype/StillImage" />
        <dc:title></dc:title>
      </cc:Work>
    </rdf:RDF>
  </metadata>
  <g
     inkscape:label="Layer 1"
     inkscape:groupmode="layer"
     id="layer1"
     transform="translate(244.78683,-168.90387)">
    <path
       inkscape:connector-curvature="0"
       d="m -226.92746,168.90387 h -17.85937 v 14.2875 h 17.85937 z"
       style="fill:url(#pattern79548);fill-opacity:1;fill-rule:nonzero;stroke:none;stroke-width:0.26458332"
       id="path2462-1" />
  </g>
</svg>
