<?xml version="1.0" encoding="UTF-8" standalone="no"?>
<!-- Created with Inkscape (http://www.inkscape.org/) -->

<svg
   xmlns:dc="http://purl.org/dc/elements/1.1/"
   xmlns:cc="http://creativecommons.org/ns#"
   xmlns:rdf="http://www.w3.org/1999/02/22-rdf-syntax-ns#"
   xmlns:svg="http://www.w3.org/2000/svg"
   xmlns="http://www.w3.org/2000/svg"
   xmlns:xlink="http://www.w3.org/1999/xlink"
   xmlns:sodipodi="http://sodipodi.sourceforge.net/DTD/sodipodi-0.dtd"
   xmlns:inkscape="http://www.inkscape.org/namespaces/inkscape"
   width="17.859373mm"
   height="14.28783mm"
   viewBox="0 0 17.859373 14.28783"
   version="1.1"
   id="svg102348"
   inkscape:version="0.92.2 (5c3e80d, 2017-08-06)"
   sodipodi:docname="660.svg">
  <defs
     id="defs102342">
    <pattern
       inkscape:collect="always"
       xlink:href="#pattern136371"
       id="pattern79590"
       patternTransform="matrix(0.33072916,0,0,-0.33072916,27.73787,166.03091)" />
    <pattern
       inkscape:collect="always"
       xlink:href="#sed660"
       id="pattern136371"
       patternTransform="translate(-71.40617,427.96051)" />
    <pattern
       id="sed660"
       height="54.125"
       width="54.125"
       y="0"
       x="0"
       patternUnits="userSpaceOnUse"
       patternTransform="rotate(180)">
      <g
         id="g20208"
         transform="translate(0,13.3936)">
        <path
           id="path20210"
           style="fill:none;stroke:#231f20;stroke-opacity:1;stroke-width:0.3;stroke-linecap:butt;stroke-linejoin:miter;stroke-miterlimit:4;stroke-dasharray:none"
           d="M 0,0 54.125,0" />
      </g>
      <g
         id="g20212"
         transform="translate(0,27.5186)">
        <path
           id="path20214"
           style="fill:none;stroke:#231f20;stroke-opacity:1;stroke-width:0.3;stroke-linecap:butt;stroke-linejoin:miter;stroke-miterlimit:4;stroke-dasharray:none"
           d="M 0,0 54.125,0" />
      </g>
      <g
         id="g20216"
         transform="translate(0,37.8936)">
        <path
           id="path20218"
           style="fill:none;stroke:#231f20;stroke-opacity:1;stroke-width:0.3;stroke-linecap:butt;stroke-linejoin:miter;stroke-miterlimit:4;stroke-dasharray:none"
           d="M 0,0 54.125,0" />
      </g>
      <g
         id="g20220"
         transform="translate(1.333,1.5835)">
        <path
           id="path20222"
           style="fill:none;stroke:#231f20;stroke-opacity:1;stroke-width:0.3;stroke-linecap:butt;stroke-linejoin:miter;stroke-miterlimit:4;stroke-dasharray:none"
           d="M 0,0 C 0,0 -0.125,1.375 0.125,2.5 0.375,3.625 0.25,3.75 0,4.5 -0.25,5.25 -0.25,5.5 0,6.125 0.25,6.75 0.125,7 0,7.75 c -0.125,0.75 0,1 0.75,2.5 l -1.875,0" />
      </g>
      <g
         id="g20224"
         transform="translate(5.5205,1.5835)">
        <path
           id="path20226"
           style="fill:none;stroke:#231f20;stroke-opacity:1;stroke-width:0.3;stroke-linecap:butt;stroke-linejoin:miter;stroke-miterlimit:4;stroke-dasharray:none"
           d="M 0,0 C 0,0 -0.125,1.375 0.125,2.5 0.375,3.625 0.25,3.75 0,4.5 -0.25,5.25 -0.25,5.5 0,6.125 0.25,6.75 0.125,7 0,7.75 c -0.125,0.75 0,1 0.75,2.5 l -1.875,0" />
      </g>
      <g
         id="g20228"
         transform="translate(9.6455,1.5835)">
        <path
           id="path20230"
           style="fill:none;stroke:#231f20;stroke-opacity:1;stroke-width:0.3;stroke-linecap:butt;stroke-linejoin:miter;stroke-miterlimit:4;stroke-dasharray:none"
           d="M 0,0 C 0,0 -0.125,1.375 0.125,2.5 0.375,3.625 0.25,3.75 0,4.5 -0.25,5.25 -0.25,5.5 0,6.125 0.25,6.75 0.125,7 0,7.75 c -0.125,0.75 0,1 0.75,2.5 l -1.875,0" />
      </g>
      <g
         id="g20232"
         transform="translate(13.833,1.5835)">
        <path
           id="path20234"
           style="fill:none;stroke:#231f20;stroke-opacity:1;stroke-width:0.3;stroke-linecap:butt;stroke-linejoin:miter;stroke-miterlimit:4;stroke-dasharray:none"
           d="M 0,0 C 0,0 -0.125,1.375 0.125,2.5 0.375,3.625 0.25,3.75 0,4.5 -0.25,5.25 -0.25,5.5 0,6.125 0.25,6.75 0.125,7 0,7.75 c -0.125,0.75 0,1 0.75,2.5 l -1.875,0" />
      </g>
      <g
         id="g20236"
         transform="translate(17.958,1.5835)">
        <path
           id="path20238"
           style="fill:none;stroke:#231f20;stroke-opacity:1;stroke-width:0.3;stroke-linecap:butt;stroke-linejoin:miter;stroke-miterlimit:4;stroke-dasharray:none"
           d="M 0,0 C 0,0 -0.125,1.375 0.125,2.5 0.375,3.625 0.25,3.75 0,4.5 -0.25,5.25 -0.25,5.5 0,6.125 0.25,6.75 0.125,7 0,7.75 c -0.125,0.75 0,1 0.75,2.5 l -1.875,0" />
      </g>
      <g
         id="g20240"
         transform="translate(22.1455,1.5835)">
        <path
           id="path20242"
           style="fill:none;stroke:#231f20;stroke-opacity:1;stroke-width:0.3;stroke-linecap:butt;stroke-linejoin:miter;stroke-miterlimit:4;stroke-dasharray:none"
           d="M 0,0 C 0,0 -0.125,1.375 0.125,2.5 0.375,3.625 0.25,3.75 0,4.5 -0.25,5.25 -0.25,5.5 0,6.125 0.25,6.75 0.125,7 0,7.75 c -0.125,0.75 0,1 0.75,2.5 l -1.875,0" />
      </g>
      <g
         id="g20244"
         transform="translate(26.333,1.5835)">
        <path
           id="path20246"
           style="fill:none;stroke:#231f20;stroke-opacity:1;stroke-width:0.3;stroke-linecap:butt;stroke-linejoin:miter;stroke-miterlimit:4;stroke-dasharray:none"
           d="M 0,0 C 0,0 -0.125,1.375 0.125,2.5 0.375,3.625 0.25,3.75 0,4.5 -0.25,5.25 -0.25,5.5 0,6.125 0.25,6.75 0.125,7 0,7.75 c -0.125,0.75 0,1 0.75,2.5 l -1.875,0" />
      </g>
      <g
         id="g20248"
         transform="translate(30.458,1.5835)">
        <path
           id="path20250"
           style="fill:none;stroke:#231f20;stroke-opacity:1;stroke-width:0.3;stroke-linecap:butt;stroke-linejoin:miter;stroke-miterlimit:4;stroke-dasharray:none"
           d="M 0,0 C 0,0 -0.125,1.375 0.125,2.5 0.375,3.625 0.25,3.75 0,4.5 -0.25,5.25 -0.25,5.5 0,6.125 0.25,6.75 0.125,7 0,7.75 c -0.125,0.75 0,1 0.75,2.5 l -1.875,0" />
      </g>
      <g
         id="g20252"
         transform="translate(34.6455,1.5835)">
        <path
           id="path20254"
           style="fill:none;stroke:#231f20;stroke-opacity:1;stroke-width:0.3;stroke-linecap:butt;stroke-linejoin:miter;stroke-miterlimit:4;stroke-dasharray:none"
           d="M 0,0 C 0,0 -0.125,1.375 0.125,2.5 0.375,3.625 0.25,3.75 0,4.5 -0.25,5.25 -0.25,5.5 0,6.125 0.25,6.75 0.125,7 0,7.75 c -0.125,0.75 0,1 0.75,2.5 l -1.875,0" />
      </g>
      <g
         id="g20256"
         transform="translate(38.7705,1.5835)">
        <path
           id="path20258"
           style="fill:none;stroke:#231f20;stroke-opacity:1;stroke-width:0.3;stroke-linecap:butt;stroke-linejoin:miter;stroke-miterlimit:4;stroke-dasharray:none"
           d="M 0,0 C 0,0 -0.125,1.375 0.125,2.5 0.375,3.625 0.25,3.75 0,4.5 -0.25,5.25 -0.25,5.5 0,6.125 0.25,6.75 0.125,7 0,7.75 c -0.125,0.75 0,1 0.75,2.5 l -1.875,0" />
      </g>
      <g
         id="g20260"
         transform="translate(42.958,1.5835)">
        <path
           id="path20262"
           style="fill:none;stroke:#231f20;stroke-opacity:1;stroke-width:0.3;stroke-linecap:butt;stroke-linejoin:miter;stroke-miterlimit:4;stroke-dasharray:none"
           d="M 0,0 C 0,0 -0.125,1.375 0.125,2.5 0.375,3.625 0.25,3.75 0,4.5 -0.25,5.25 -0.25,5.5 0,6.125 0.25,6.75 0.125,7 0,7.75 c -0.125,0.75 0,1 0.75,2.5 l -1.875,0" />
      </g>
      <g
         id="g20264"
         transform="translate(47.0205,1.5835)">
        <path
           id="path20266"
           style="fill:none;stroke:#231f20;stroke-opacity:1;stroke-width:0.3;stroke-linecap:butt;stroke-linejoin:miter;stroke-miterlimit:4;stroke-dasharray:none"
           d="M 0,0 C 0,0 -0.125,1.375 0.125,2.5 0.375,3.625 0.25,3.75 0,4.5 -0.25,5.25 -0.25,5.5 0,6.125 0.25,6.75 0.125,7 0,7.75 c -0.125,0.75 0,1 0.75,2.5 l -1.875,0" />
      </g>
      <g
         id="g20268"
         transform="translate(51.208,1.5835)">
        <path
           id="path20270"
           style="fill:none;stroke:#231f20;stroke-opacity:1;stroke-width:0.3;stroke-linecap:butt;stroke-linejoin:miter;stroke-miterlimit:4;stroke-dasharray:none"
           d="M 0,0 C 0,0 -0.125,1.375 0.125,2.5 0.375,3.625 0.25,3.75 0,4.5 -0.25,5.25 -0.25,5.5 0,6.125 0.25,6.75 0.125,7 0,7.75 c -0.125,0.75 0,1 0.75,2.5 l -1.875,0" />
      </g>
      <g
         id="g20272"
         transform="translate(1.208,19.4585)">
        <path
           id="path20274"
           style="fill:none;stroke:#231f20;stroke-opacity:1;stroke-width:0.3;stroke-linecap:butt;stroke-linejoin:miter;stroke-miterlimit:4;stroke-dasharray:none"
           d="M 0,0 C 0.125,0.5 0.125,1.125 -0.125,1.75 -0.375,2.375 -0.375,2.875 0,3.625 0.375,4.375 0.25,4.375 0.125,5.125 0,5.875 0,5.625 0.5,6.602 l -1.625,0" />
      </g>
      <g
         id="g20276"
         transform="translate(4.583,19.4585)">
        <path
           id="path20278"
           style="fill:none;stroke:#231f20;stroke-opacity:1;stroke-width:0.3;stroke-linecap:butt;stroke-linejoin:miter;stroke-miterlimit:4;stroke-dasharray:none"
           d="M 0,0 C 0.125,0.5 0.125,1.125 -0.125,1.75 -0.375,2.375 -0.375,2.875 0,3.625 0.375,4.375 0.25,4.375 0.125,5.125 0,5.875 0,5.625 0.5,6.602 l -1.625,0" />
      </g>
      <g
         id="g20280"
         transform="translate(7.958,19.4585)">
        <path
           id="path20282"
           style="fill:none;stroke:#231f20;stroke-opacity:1;stroke-width:0.3;stroke-linecap:butt;stroke-linejoin:miter;stroke-miterlimit:4;stroke-dasharray:none"
           d="M 0,0 C 0.125,0.5 0.125,1.125 -0.125,1.75 -0.375,2.375 -0.375,2.875 0,3.625 0.375,4.375 0.25,4.375 0.125,5.125 0,5.875 0,5.625 0.5,6.602 l -1.625,0" />
      </g>
      <g
         id="g20284"
         transform="translate(11.3955,19.4585)">
        <path
           id="path20286"
           style="fill:none;stroke:#231f20;stroke-opacity:1;stroke-width:0.3;stroke-linecap:butt;stroke-linejoin:miter;stroke-miterlimit:4;stroke-dasharray:none"
           d="M 0,0 C 0.125,0.5 0.125,1.125 -0.125,1.75 -0.375,2.375 -0.375,2.875 0,3.625 0.375,4.375 0.25,4.375 0.125,5.125 0,5.875 0,5.625 0.5,6.602 l -1.625,0" />
      </g>
      <g
         id="g20288"
         transform="translate(14.7705,19.4585)">
        <path
           id="path20290"
           style="fill:none;stroke:#231f20;stroke-opacity:1;stroke-width:0.3;stroke-linecap:butt;stroke-linejoin:miter;stroke-miterlimit:4;stroke-dasharray:none"
           d="M 0,0 C 0.125,0.5 0.125,1.125 -0.125,1.75 -0.375,2.375 -0.375,2.875 0,3.625 0.375,4.375 0.25,4.375 0.125,5.125 0,5.875 0,5.625 0.5,6.602 l -1.625,0" />
      </g>
      <g
         id="g20292"
         transform="translate(18.1455,19.4585)">
        <path
           id="path20294"
           style="fill:none;stroke:#231f20;stroke-opacity:1;stroke-width:0.3;stroke-linecap:butt;stroke-linejoin:miter;stroke-miterlimit:4;stroke-dasharray:none"
           d="M 0,0 C 0.125,0.5 0.125,1.125 -0.125,1.75 -0.375,2.375 -0.375,2.875 0,3.625 0.375,4.375 0.25,4.375 0.125,5.125 0,5.875 0,5.625 0.5,6.602 l -1.625,0" />
      </g>
      <g
         id="g20296"
         transform="translate(21.583,19.4585)">
        <path
           id="path20298"
           style="fill:none;stroke:#231f20;stroke-opacity:1;stroke-width:0.3;stroke-linecap:butt;stroke-linejoin:miter;stroke-miterlimit:4;stroke-dasharray:none"
           d="M 0,0 C 0.125,0.5 0.125,1.125 -0.125,1.75 -0.375,2.375 -0.375,2.875 0,3.625 0.375,4.375 0.25,4.375 0.125,5.125 0,5.875 0,5.625 0.5,6.602 l -1.625,0" />
      </g>
      <g
         id="g20300"
         transform="translate(24.958,19.4585)">
        <path
           id="path20302"
           style="fill:none;stroke:#231f20;stroke-opacity:1;stroke-width:0.3;stroke-linecap:butt;stroke-linejoin:miter;stroke-miterlimit:4;stroke-dasharray:none"
           d="M 0,0 C 0.125,0.5 0.125,1.125 -0.125,1.75 -0.375,2.375 -0.375,2.875 0,3.625 0.375,4.375 0.25,4.375 0.125,5.125 0,5.875 0,5.625 0.5,6.602 l -1.625,0" />
      </g>
      <g
         id="g20304"
         transform="translate(28.2705,19.4585)">
        <path
           id="path20306"
           style="fill:none;stroke:#231f20;stroke-opacity:1;stroke-width:0.3;stroke-linecap:butt;stroke-linejoin:miter;stroke-miterlimit:4;stroke-dasharray:none"
           d="M 0,0 C 0.125,0.5 0.125,1.125 -0.125,1.75 -0.375,2.375 -0.375,2.875 0,3.625 0.375,4.375 0.25,4.375 0.125,5.125 0,5.875 0,5.625 0.5,6.602 l -1.625,0" />
      </g>
      <g
         id="g20308"
         transform="translate(31.708,19.4585)">
        <path
           id="path20310"
           style="fill:none;stroke:#231f20;stroke-opacity:1;stroke-width:0.3;stroke-linecap:butt;stroke-linejoin:miter;stroke-miterlimit:4;stroke-dasharray:none"
           d="M 0,0 C 0.125,0.5 0.125,1.125 -0.125,1.75 -0.375,2.375 -0.375,2.875 0,3.625 0.375,4.375 0.25,4.375 0.125,5.125 0,5.875 0,5.625 0.5,6.602 l -1.625,0" />
      </g>
      <g
         id="g20312"
         transform="translate(35.083,19.4585)">
        <path
           id="path20314"
           style="fill:none;stroke:#231f20;stroke-opacity:1;stroke-width:0.3;stroke-linecap:butt;stroke-linejoin:miter;stroke-miterlimit:4;stroke-dasharray:none"
           d="M 0,0 C 0.125,0.5 0.125,1.125 -0.125,1.75 -0.375,2.375 -0.375,2.875 0,3.625 0.375,4.375 0.25,4.375 0.125,5.125 0,5.875 0,5.625 0.5,6.602 l -1.625,0" />
      </g>
      <g
         id="g20316"
         transform="translate(38.458,19.4585)">
        <path
           id="path20318"
           style="fill:none;stroke:#231f20;stroke-opacity:1;stroke-width:0.3;stroke-linecap:butt;stroke-linejoin:miter;stroke-miterlimit:4;stroke-dasharray:none"
           d="M 0,0 C 0.125,0.5 0.125,1.125 -0.125,1.75 -0.375,2.375 -0.375,2.875 0,3.625 0.375,4.375 0.25,4.375 0.125,5.125 0,5.875 0,5.625 0.5,6.602 l -1.625,0" />
      </g>
      <g
         id="g20320"
         transform="translate(41.833,19.4585)">
        <path
           id="path20322"
           style="fill:none;stroke:#231f20;stroke-opacity:1;stroke-width:0.3;stroke-linecap:butt;stroke-linejoin:miter;stroke-miterlimit:4;stroke-dasharray:none"
           d="M 0,0 C 0.125,0.5 0.125,1.125 -0.125,1.75 -0.375,2.375 -0.375,2.875 0,3.625 0.375,4.375 0.25,4.375 0.125,5.125 0,5.875 0,5.625 0.5,6.602 l -1.625,0" />
      </g>
      <g
         id="g20324"
         transform="translate(45.208,19.4585)">
        <path
           id="path20326"
           style="fill:none;stroke:#231f20;stroke-opacity:1;stroke-width:0.3;stroke-linecap:butt;stroke-linejoin:miter;stroke-miterlimit:4;stroke-dasharray:none"
           d="M 0,0 C 0.125,0.5 0.125,1.125 -0.125,1.75 -0.375,2.375 -0.375,2.875 0,3.625 0.375,4.375 0.25,4.375 0.125,5.125 0,5.875 0,5.625 0.5,6.602 l -1.625,0" />
      </g>
      <g
         id="g20328"
         transform="translate(48.6455,19.4585)">
        <path
           id="path20330"
           style="fill:none;stroke:#231f20;stroke-opacity:1;stroke-width:0.3;stroke-linecap:butt;stroke-linejoin:miter;stroke-miterlimit:4;stroke-dasharray:none"
           d="M 0,0 C 0.125,0.5 0.125,1.125 -0.125,1.75 -0.375,2.375 -0.375,2.875 0,3.625 0.375,4.375 0.25,4.375 0.125,5.125 0,5.875 0,5.625 0.5,6.602 l -1.625,0" />
      </g>
      <g
         id="g20332"
         transform="translate(51.958,19.4585)">
        <path
           id="path20334"
           style="fill:none;stroke:#231f20;stroke-opacity:1;stroke-width:0.3;stroke-linecap:butt;stroke-linejoin:miter;stroke-miterlimit:4;stroke-dasharray:none"
           d="M 0,0 C 0.125,0.5 0.125,1.125 -0.125,1.75 -0.375,2.375 -0.375,2.875 0,3.625 0.375,4.375 0.25,4.375 0.125,5.125 0,5.875 0,5.625 0.5,6.602 l -1.625,0" />
      </g>
      <g
         id="g20336"
         transform="translate(0,50.8936)">
        <path
           id="path20338"
           style="fill:none;stroke:#231f20;stroke-opacity:1;stroke-width:0.3;stroke-linecap:butt;stroke-linejoin:miter;stroke-miterlimit:4;stroke-dasharray:none"
           d="M 0,0 54.125,0" />
      </g>
      <g
         id="g20340"
         transform="translate(1.208,42.8335)">
        <path
           id="path20342"
           style="fill:none;stroke:#231f20;stroke-opacity:1;stroke-width:0.3;stroke-linecap:butt;stroke-linejoin:miter;stroke-miterlimit:4;stroke-dasharray:none"
           d="M 0,0 C 0.125,0.5 0.579,1.125 0.329,1.75 0.079,2.375 -0.375,2.875 0,3.625 0.375,4.375 0.137,4.375 0.012,5.125 -0.113,5.875 0,5.625 0.5,6.602 l -1.625,0" />
      </g>
      <g
         id="g20344"
         transform="translate(4.583,42.8335)">
        <path
           id="path20346"
           style="fill:none;stroke:#231f20;stroke-opacity:1;stroke-width:0.3;stroke-linecap:butt;stroke-linejoin:miter;stroke-miterlimit:4;stroke-dasharray:none"
           d="M 0,0 C 0.125,0.5 0.579,1.125 0.329,1.75 0.079,2.375 -0.375,2.875 0,3.625 0.375,4.375 0.137,4.375 0.012,5.125 -0.113,5.875 0,5.625 0.5,6.602 l -1.625,0" />
      </g>
      <g
         id="g20348"
         transform="translate(7.958,42.8335)">
        <path
           id="path20350"
           style="fill:none;stroke:#231f20;stroke-opacity:1;stroke-width:0.3;stroke-linecap:butt;stroke-linejoin:miter;stroke-miterlimit:4;stroke-dasharray:none"
           d="M 0,0 C 0.125,0.5 0.579,1.125 0.329,1.75 0.079,2.375 -0.375,2.875 0,3.625 0.375,4.375 0.137,4.375 0.012,5.125 -0.113,5.875 0,5.625 0.5,6.602 l -1.625,0" />
      </g>
      <g
         id="g20352"
         transform="translate(11.3955,42.8335)">
        <path
           id="path20354"
           style="fill:none;stroke:#231f20;stroke-opacity:1;stroke-width:0.3;stroke-linecap:butt;stroke-linejoin:miter;stroke-miterlimit:4;stroke-dasharray:none"
           d="M 0,0 C 0.125,0.5 0.579,1.125 0.329,1.75 0.079,2.375 -0.375,2.875 0,3.625 0.375,4.375 0.137,4.375 0.012,5.125 -0.113,5.875 0,5.625 0.5,6.602 l -1.625,0" />
      </g>
      <g
         id="g20356"
         transform="translate(14.7705,42.8335)">
        <path
           id="path20358"
           style="fill:none;stroke:#231f20;stroke-opacity:1;stroke-width:0.3;stroke-linecap:butt;stroke-linejoin:miter;stroke-miterlimit:4;stroke-dasharray:none"
           d="M 0,0 C 0.125,0.5 0.579,1.125 0.329,1.75 0.079,2.375 -0.375,2.875 0,3.625 0.375,4.375 0.137,4.375 0.012,5.125 -0.113,5.875 0,5.625 0.5,6.602 l -1.625,0" />
      </g>
      <g
         id="g20360"
         transform="translate(18.1455,42.8335)">
        <path
           id="path20362"
           style="fill:none;stroke:#231f20;stroke-opacity:1;stroke-width:0.3;stroke-linecap:butt;stroke-linejoin:miter;stroke-miterlimit:4;stroke-dasharray:none"
           d="M 0,0 C 0.125,0.5 0.579,1.125 0.329,1.75 0.079,2.375 -0.375,2.875 0,3.625 0.375,4.375 0.137,4.375 0.012,5.125 -0.113,5.875 0,5.625 0.5,6.602 l -1.625,0" />
      </g>
      <g
         id="g20364"
         transform="translate(21.583,42.8335)">
        <path
           id="path20366"
           style="fill:none;stroke:#231f20;stroke-opacity:1;stroke-width:0.3;stroke-linecap:butt;stroke-linejoin:miter;stroke-miterlimit:4;stroke-dasharray:none"
           d="M 0,0 C 0.125,0.5 0.579,1.125 0.329,1.75 0.079,2.375 -0.375,2.875 0,3.625 0.375,4.375 0.137,4.375 0.012,5.125 -0.113,5.875 0,5.625 0.5,6.602 l -1.625,0" />
      </g>
      <g
         id="g20368"
         transform="translate(24.958,42.8335)">
        <path
           id="path20370"
           style="fill:none;stroke:#231f20;stroke-opacity:1;stroke-width:0.3;stroke-linecap:butt;stroke-linejoin:miter;stroke-miterlimit:4;stroke-dasharray:none"
           d="M 0,0 C 0.125,0.5 0.579,1.125 0.329,1.75 0.079,2.375 -0.375,2.875 0,3.625 0.375,4.375 0.137,4.375 0.012,5.125 -0.113,5.875 0,5.625 0.5,6.602 l -1.625,0" />
      </g>
      <g
         id="g20372"
         transform="translate(28.2705,42.8335)">
        <path
           id="path20374"
           style="fill:none;stroke:#231f20;stroke-opacity:1;stroke-width:0.3;stroke-linecap:butt;stroke-linejoin:miter;stroke-miterlimit:4;stroke-dasharray:none"
           d="M 0,0 C 0.125,0.5 0.579,1.125 0.329,1.75 0.079,2.375 -0.375,2.875 0,3.625 0.375,4.375 0.137,4.375 0.012,5.125 -0.113,5.875 0,5.625 0.5,6.602 l -1.625,0" />
      </g>
      <g
         id="g20376"
         transform="translate(31.708,42.8335)">
        <path
           id="path20378"
           style="fill:none;stroke:#231f20;stroke-opacity:1;stroke-width:0.3;stroke-linecap:butt;stroke-linejoin:miter;stroke-miterlimit:4;stroke-dasharray:none"
           d="M 0,0 C 0.125,0.5 0.579,1.125 0.329,1.75 0.079,2.375 -0.375,2.875 0,3.625 0.375,4.375 0.137,4.375 0.012,5.125 -0.113,5.875 0,5.625 0.5,6.602 l -1.625,0" />
      </g>
      <g
         id="g20380"
         transform="translate(35.083,42.8335)">
        <path
           id="path20382"
           style="fill:none;stroke:#231f20;stroke-opacity:1;stroke-width:0.3;stroke-linecap:butt;stroke-linejoin:miter;stroke-miterlimit:4;stroke-dasharray:none"
           d="M 0,0 C 0.125,0.5 0.579,1.125 0.329,1.75 0.079,2.375 -0.375,2.875 0,3.625 0.375,4.375 0.137,4.375 0.012,5.125 -0.113,5.875 0,5.625 0.5,6.602 l -1.625,0" />
      </g>
      <g
         id="g20384"
         transform="translate(38.458,42.8335)">
        <path
           id="path20386"
           style="fill:none;stroke:#231f20;stroke-opacity:1;stroke-width:0.3;stroke-linecap:butt;stroke-linejoin:miter;stroke-miterlimit:4;stroke-dasharray:none"
           d="M 0,0 C 0.125,0.5 0.579,1.125 0.329,1.75 0.079,2.375 -0.375,2.875 0,3.625 0.375,4.375 0.137,4.375 0.012,5.125 -0.113,5.875 0,5.625 0.5,6.602 l -1.625,0" />
      </g>
      <g
         id="g20388"
         transform="translate(41.833,42.8335)">
        <path
           id="path20390"
           style="fill:none;stroke:#231f20;stroke-opacity:1;stroke-width:0.3;stroke-linecap:butt;stroke-linejoin:miter;stroke-miterlimit:4;stroke-dasharray:none"
           d="M 0,0 C 0.125,0.5 0.579,1.125 0.329,1.75 0.079,2.375 -0.375,2.875 0,3.625 0.375,4.375 0.137,4.375 0.012,5.125 -0.113,5.875 0,5.625 0.5,6.602 l -1.625,0" />
      </g>
      <g
         id="g20392"
         transform="translate(45.208,42.8335)">
        <path
           id="path20394"
           style="fill:none;stroke:#231f20;stroke-opacity:1;stroke-width:0.3;stroke-linecap:butt;stroke-linejoin:miter;stroke-miterlimit:4;stroke-dasharray:none"
           d="M 0,0 C 0.125,0.5 0.579,1.125 0.329,1.75 0.079,2.375 -0.375,2.875 0,3.625 0.375,4.375 0.137,4.375 0.012,5.125 -0.113,5.875 0,5.625 0.5,6.602 l -1.625,0" />
      </g>
      <g
         id="g20396"
         transform="translate(48.6455,42.8335)">
        <path
           id="path20398"
           style="fill:none;stroke:#231f20;stroke-opacity:1;stroke-width:0.3;stroke-linecap:butt;stroke-linejoin:miter;stroke-miterlimit:4;stroke-dasharray:none"
           d="M 0,0 C 0.125,0.5 0.579,1.125 0.329,1.75 0.079,2.375 -0.375,2.875 0,3.625 0.375,4.375 0.137,4.375 0.012,5.125 -0.113,5.875 0,5.625 0.5,6.602 l -1.625,0" />
      </g>
      <g
         id="g20400"
         transform="translate(51.958,42.8335)">
        <path
           id="path20402"
           style="fill:none;stroke:#231f20;stroke-opacity:1;stroke-width:0.3;stroke-linecap:butt;stroke-linejoin:miter;stroke-miterlimit:4;stroke-dasharray:none"
           d="M 0,0 C 0.125,0.5 0.579,1.125 0.329,1.75 0.079,2.375 -0.375,2.875 0,3.625 0.375,4.375 0.137,4.375 0.012,5.125 -0.113,5.875 0,5.625 0.5,6.602 l -1.625,0" />
      </g>
      <g
         id="g20404"
         transform="translate(0.958,33.9165)">
        <path
           id="path20406"
           style="fill:none;stroke:#231f20;stroke-opacity:1;stroke-width:0.3;stroke-linecap:butt;stroke-linejoin:miter;stroke-miterlimit:4;stroke-dasharray:none"
           d="M 0,0 C 0,0.375 0,0.875 0.125,1.5 0.25,2.125 0.125,2 0.5,2.875 l -1.25,0" />
      </g>
      <g
         id="g20408"
         transform="translate(3.7705,33.9165)">
        <path
           id="path20410"
           style="fill:none;stroke:#231f20;stroke-opacity:1;stroke-width:0.3;stroke-linecap:butt;stroke-linejoin:miter;stroke-miterlimit:4;stroke-dasharray:none"
           d="M 0,0 C 0,0.375 0,0.875 0.125,1.5 0.25,2.125 0.125,2 0.5,2.875 l -1.25,0" />
      </g>
      <g
         id="g20412"
         transform="translate(6.6455,33.9165)">
        <path
           id="path20414"
           style="fill:none;stroke:#231f20;stroke-opacity:1;stroke-width:0.3;stroke-linecap:butt;stroke-linejoin:miter;stroke-miterlimit:4;stroke-dasharray:none"
           d="M 0,0 C 0,0.375 0,0.875 0.125,1.5 0.25,2.125 0.125,2 0.5,2.875 l -1.25,0" />
      </g>
      <g
         id="g20416"
         transform="translate(9.458,33.9165)">
        <path
           id="path20418"
           style="fill:none;stroke:#231f20;stroke-opacity:1;stroke-width:0.3;stroke-linecap:butt;stroke-linejoin:miter;stroke-miterlimit:4;stroke-dasharray:none"
           d="M 0,0 C 0,0.375 0,0.875 0.125,1.5 0.25,2.125 0.125,2 0.5,2.875 l -1.25,0" />
      </g>
      <g
         id="g20420"
         transform="translate(12.3955,33.9165)">
        <path
           id="path20422"
           style="fill:none;stroke:#231f20;stroke-opacity:1;stroke-width:0.3;stroke-linecap:butt;stroke-linejoin:miter;stroke-miterlimit:4;stroke-dasharray:none"
           d="M 0,0 C 0,0.375 0,0.875 0.125,1.5 0.25,2.125 0.125,2 0.5,2.875 l -1.25,0" />
      </g>
      <g
         id="g20424"
         transform="translate(15.208,33.9165)">
        <path
           id="path20426"
           style="fill:none;stroke:#231f20;stroke-opacity:1;stroke-width:0.3;stroke-linecap:butt;stroke-linejoin:miter;stroke-miterlimit:4;stroke-dasharray:none"
           d="M 0,0 C 0,0.375 0,0.875 0.125,1.5 0.25,2.125 0.125,2 0.5,2.875 l -1.25,0" />
      </g>
      <g
         id="g20428"
         transform="translate(18.083,33.9165)">
        <path
           id="path20430"
           style="fill:none;stroke:#231f20;stroke-opacity:1;stroke-width:0.3;stroke-linecap:butt;stroke-linejoin:miter;stroke-miterlimit:4;stroke-dasharray:none"
           d="M 0,0 C 0,0.375 0,0.875 0.125,1.5 0.25,2.125 0.125,2 0.5,2.875 l -1.25,0" />
      </g>
      <g
         id="g20432"
         transform="translate(20.8955,33.9165)">
        <path
           id="path20434"
           style="fill:none;stroke:#231f20;stroke-opacity:1;stroke-width:0.3;stroke-linecap:butt;stroke-linejoin:miter;stroke-miterlimit:4;stroke-dasharray:none"
           d="M 0,0 C 0,0.375 0,0.875 0.125,1.5 0.25,2.125 0.125,2 0.5,2.875 l -1.25,0" />
      </g>
      <g
         id="g20436"
         transform="translate(23.7705,33.9165)">
        <path
           id="path20438"
           style="fill:none;stroke:#231f20;stroke-opacity:1;stroke-width:0.3;stroke-linecap:butt;stroke-linejoin:miter;stroke-miterlimit:4;stroke-dasharray:none"
           d="M 0,0 C 0,0.375 0,0.875 0.125,1.5 0.25,2.125 0.125,2 0.5,2.875 l -1.25,0" />
      </g>
      <g
         id="g20440"
         transform="translate(26.583,33.9165)">
        <path
           id="path20442"
           style="fill:none;stroke:#231f20;stroke-opacity:1;stroke-width:0.3;stroke-linecap:butt;stroke-linejoin:miter;stroke-miterlimit:4;stroke-dasharray:none"
           d="M 0,0 C 0,0.375 0,0.875 0.125,1.5 0.25,2.125 0.125,2 0.5,2.875 l -1.25,0" />
      </g>
      <g
         id="g20444"
         transform="translate(29.458,33.9165)">
        <path
           id="path20446"
           style="fill:none;stroke:#231f20;stroke-opacity:1;stroke-width:0.3;stroke-linecap:butt;stroke-linejoin:miter;stroke-miterlimit:4;stroke-dasharray:none"
           d="M 0,0 C 0,0.375 0,0.875 0.125,1.5 0.25,2.125 0.125,2 0.5,2.875 l -1.25,0" />
      </g>
      <g
         id="g20448"
         transform="translate(32.2705,33.9165)">
        <path
           id="path20450"
           style="fill:none;stroke:#231f20;stroke-opacity:1;stroke-width:0.3;stroke-linecap:butt;stroke-linejoin:miter;stroke-miterlimit:4;stroke-dasharray:none"
           d="M 0,0 C 0,0.375 0,0.875 0.125,1.5 0.25,2.125 0.125,2 0.5,2.875 l -1.25,0" />
      </g>
      <g
         id="g20452"
         transform="translate(35.1455,33.9165)">
        <path
           id="path20454"
           style="fill:none;stroke:#231f20;stroke-opacity:1;stroke-width:0.3;stroke-linecap:butt;stroke-linejoin:miter;stroke-miterlimit:4;stroke-dasharray:none"
           d="M 0,0 C 0,0.375 0,0.875 0.125,1.5 0.25,2.125 0.125,2 0.5,2.875 l -1.25,0" />
      </g>
      <g
         id="g20456"
         transform="translate(38.0205,33.9165)">
        <path
           id="path20458"
           style="fill:none;stroke:#231f20;stroke-opacity:1;stroke-width:0.3;stroke-linecap:butt;stroke-linejoin:miter;stroke-miterlimit:4;stroke-dasharray:none"
           d="M 0,0 C 0,0.375 0,0.875 0.125,1.5 0.25,2.125 0.125,2 0.5,2.875 l -1.25,0" />
      </g>
      <g
         id="g20460"
         transform="translate(40.833,33.9165)">
        <path
           id="path20462"
           style="fill:none;stroke:#231f20;stroke-opacity:1;stroke-width:0.3;stroke-linecap:butt;stroke-linejoin:miter;stroke-miterlimit:4;stroke-dasharray:none"
           d="M 0,0 C 0,0.375 0,0.875 0.125,1.5 0.25,2.125 0.125,2 0.5,2.875 l -1.25,0" />
      </g>
      <g
         id="g20464"
         transform="translate(43.708,33.9165)">
        <path
           id="path20466"
           style="fill:none;stroke:#231f20;stroke-opacity:1;stroke-width:0.3;stroke-linecap:butt;stroke-linejoin:miter;stroke-miterlimit:4;stroke-dasharray:none"
           d="M 0,0 C 0,0.375 0,0.875 0.125,1.5 0.25,2.125 0.125,2 0.5,2.875 l -1.25,0" />
      </g>
      <g
         id="g20468"
         transform="translate(46.5205,33.9165)">
        <path
           id="path20470"
           style="fill:none;stroke:#231f20;stroke-opacity:1;stroke-width:0.3;stroke-linecap:butt;stroke-linejoin:miter;stroke-miterlimit:4;stroke-dasharray:none"
           d="M 0,0 C 0,0.375 0,0.875 0.125,1.5 0.25,2.125 0.125,2 0.5,2.875 l -1.25,0" />
      </g>
      <g
         id="g20472"
         transform="translate(49.3955,33.9165)">
        <path
           id="path20474"
           style="fill:none;stroke:#231f20;stroke-opacity:1;stroke-width:0.3;stroke-linecap:butt;stroke-linejoin:miter;stroke-miterlimit:4;stroke-dasharray:none"
           d="M 0,0 C 0,0.375 0,0.875 0.125,1.5 0.25,2.125 0.125,2 0.5,2.875 l -1.25,0" />
      </g>
      <g
         id="g20476"
         transform="translate(52.208,33.9165)">
        <path
           id="path20478"
           style="fill:none;stroke:#231f20;stroke-opacity:1;stroke-width:0.3;stroke-linecap:butt;stroke-linejoin:miter;stroke-miterlimit:4;stroke-dasharray:none"
           d="M 0,0 C 0,0.375 0,0.875 0.125,1.5 0.25,2.125 0.125,2 0.5,2.875 l -1.25,0" />
      </g>
    </pattern>
  </defs>
  <sodipodi:namedview
     id="base"
     pagecolor="#ffffff"
     bordercolor="#666666"
     borderopacity="1.0"
     inkscape:pageopacity="0.0"
     inkscape:pageshadow="2"
     inkscape:zoom="0.35"
     inkscape:cx="33.749999"
     inkscape:cy="27.00063"
     inkscape:document-units="mm"
     inkscape:current-layer="layer1"
     showgrid="false"
     inkscape:window-width="1600"
     inkscape:window-height="838"
     inkscape:window-x="1592"
     inkscape:window-y="-8"
     inkscape:window-maximized="1" />
  <metadata
     id="metadata102345">
    <rdf:RDF>
      <cc:Work
         rdf:about="">
        <dc:format>image/svg+xml</dc:format>
        <dc:type
           rdf:resource="http://purl.org/dc/dcmitype/StillImage" />
        <dc:title></dc:title>
      </cc:Work>
    </rdf:RDF>
  </metadata>
  <g
     inkscape:label="Layer 1"
     inkscape:groupmode="layer"
     id="layer1"
     transform="translate(-96.903646,-141.68942)">
    <path
       inkscape:connector-curvature="0"
       d="M 114.76302,141.68942 H 96.903646 v 14.28783 h 17.859374 z"
       style="fill:url(#pattern79590);fill-opacity:1;fill-rule:nonzero;stroke:none;stroke-width:0.26458332"
       id="path20480-0" />
  </g>
</svg>
